<svg width="302" height="187" viewBox="0 0 302 187" fill="none" xmlns="http://www.w3.org/2000/svg">
<g filter="url(#filter0_d_327_10)">
<path fill-rule="evenodd" clip-rule="evenodd" d="M246.72 2.38798C239.646 6.10746 232.303 14.0843 228.039 22.6836C224.696 29.4253 224.036 31.9812 223.627 39.7629C223.363 44.7955 222.829 48.913 222.439 48.913C222.05 48.913 220.651 48.1561 219.33 47.2311C214.845 44.0896 204.762 41.3222 197.803 41.3222C187.904 41.3222 179.801 44.6687 172.834 51.6359C168.939 55.5289 166.744 56.995 165.751 56.365C163.323 54.8273 152.524 55.3185 146.879 57.2227C143.028 58.5229 139.641 60.9498 134.756 65.9077L127.978 72.7882V64.0176V55.247L124.995 55.8315C123.354 56.1535 119.084 56.7196 115.505 57.0915C111.926 57.4624 108.143 58.0024 107.099 58.293C102.086 59.6832 102.665 68.4322 107.77 68.4322C109.213 68.4322 110.696 69.2227 111.067 70.19C111.438 71.1573 111.414 80.6739 111.014 91.3401L110.285 110.731L106.354 111.79C101.762 113.026 95.3727 111.632 93.1179 108.903C91.9498 107.489 91.7188 102.146 92.0019 83.0998C92.4097 55.5571 92.4606 55.7252 84.038 56.8801L79.1727 57.547V52.8808C79.1727 42.0379 71.9755 30.9217 63.2459 28.2845C58.3199 26.7956 11.7891 25.7709 7.04962 27.0472C2.6756 28.2238 1.11059 32.4974 3.64086 36.3589C4.80133 38.1297 6.46721 39.1534 8.18624 39.1534C10.0571 39.1534 11.2089 39.9667 11.8954 41.7744C12.467 43.2752 12.6947 61.1428 12.4312 83.6061C11.929 126.231 11.7121 127.774 5.95205 129.701C0.93055 131.38 0 132.302 0 135.597C0 140.966 1.41643 141.296 22.8115 140.905C40.9724 140.572 42.5971 140.38 44.0547 138.383C44.9224 137.195 45.4928 135.259 45.3215 134.083C45.046 132.197 43.6372 131.192 36.8749 128.053C35.5431 127.435 35.1939 124.031 34.9509 109.251C34.7872 99.3256 34.9336 91.2045 35.2752 91.2045C37.1374 91.2045 42.0504 94.6486 44.02 97.3346C45.2662 99.0328 48.4146 105.302 51.0186 111.266C62.6093 137.82 77.2953 162.831 86.9923 172.534C92.7589 178.306 99.4788 181.882 107.365 183.377C120.256 185.822 133.253 184.068 144.505 178.367C152.186 174.475 162.653 163.727 166.553 155.726C169.395 149.895 169.725 148.122 169.729 138.647L169.733 128.074H178.084C184.602 128.074 186.649 127.695 187.404 126.344C188.945 123.592 187.573 119.327 184.732 118.033C183.166 117.32 182.355 116.235 182.706 115.322C183.028 114.484 183.29 113.107 183.29 112.261C183.29 111.151 184.721 110.722 188.442 110.716C193.759 110.71 198.26 108.565 201.125 104.673C202.821 102.368 202.511 101.949 205.505 110.589C207.624 116.701 207.63 116.664 204.439 118.117C202.312 119.087 201.728 120.156 201.728 123.08C201.728 125.131 202.338 127.034 203.083 127.31C203.829 127.585 208.776 127.549 214.077 127.229L223.716 126.649L222.955 131.97C220.487 149.23 212.697 159.174 200.063 161.194L195.686 161.893L196.084 157.725C196.567 152.65 193.246 148.925 187.391 147.975C182.019 147.103 176.566 151.904 176.566 157.505C176.566 176.938 207.507 180.864 227.594 163.979C237.841 155.363 242.883 142.215 242.922 124.008L242.941 115.061L247.154 119.274C253.093 125.212 262.093 128.444 270.81 127.769C277.973 127.214 290.289 122.223 294.697 118.087C297.916 115.067 299.712 109.262 298.85 104.665L298.146 100.917L291.422 104.664C282.223 109.788 275.72 111.33 270.532 109.618C264.193 107.526 258.389 101.571 256.504 95.2244C255.606 92.2011 254.871 89.6267 254.871 89.5042C254.871 88.7939 263.836 87.8136 277.255 87.0556C294.042 86.1068 297.623 84.876 298.947 79.5971C299.971 75.5187 297.682 67.6384 293.882 62.1654C292.111 59.6128 290.661 57.2433 290.661 56.8996C290.661 56.5548 292.058 54.4955 293.766 52.3223C297.854 47.1194 300.672 41.5185 299.86 40.2064C298.828 38.5364 290.301 38.9842 287.64 40.8472C286.31 41.7798 284.313 44.3108 283.204 46.472L281.188 50.403L271.966 50.4713L262.743 50.5396L263.257 46.7052C263.954 41.5033 261.139 35.0837 257.564 33.7249C253.395 32.1395 252.062 32.3683 248.719 35.2431C246.305 37.3197 245.701 38.7544 245.701 42.4142C245.701 46.1836 246.27 47.4469 248.931 49.5929C253.024 52.8927 251.588 54.3827 244.363 54.3296C243.277 54.322 243.965 32.8216 245.202 28.0871C247.358 19.8338 254.752 14.2123 263.449 14.2123C268.569 14.2123 269.67 15.4116 266.875 17.9415C263.309 21.1676 262.086 25.5106 263.52 29.8558C266.992 40.3723 279.402 40.7128 284.718 30.4359C289.272 21.6317 282.908 8.7881 271.001 2.75667C264.045 -0.768707 253.041 -0.935704 246.72 2.38798ZM269.818 5.08054C285.401 12.8437 288.673 32.6655 274.829 35.4339C272.27 35.9447 271.008 35.473 268.664 33.1296C263.717 28.1826 264.964 21.2012 271.388 17.8786L274.827 16.1013L272.478 14.2003C266.306 9.20342 255.804 10.8257 248.763 17.8645C243.159 23.4687 242.14 27.2261 241.675 44.0332L241.314 57.046L244.225 57.3822C247.787 57.7931 253.312 55.0778 254.883 52.1445C255.877 50.2848 255.616 49.8141 253.039 48.8349C249.321 47.422 248.401 46.035 248.38 41.8102C248.36 37.7491 250.066 35.9002 253.835 35.9002C260.513 35.9002 262.683 43.6678 258.719 53.3785C258.066 54.977 258.516 54.9965 263.758 53.603C268.976 52.2161 276.277 52.3777 280.432 53.9717C281.321 54.3122 282.897 52.4622 284.63 49.0431C287.721 42.9434 290.649 40.8125 294.582 41.7993C296.919 42.3849 297.073 42.7319 295.948 44.8736C295.252 46.2009 293.289 48.8891 291.586 50.8486C287.673 55.3522 287.695 57.74 291.701 63.3756C293.466 65.8578 295.522 70.216 296.269 73.0582C297.579 78.0389 297.524 78.3284 294.775 81.0784C292.036 83.8155 291.249 83.9673 275.294 84.8163C266.149 85.3032 257.268 86.0319 255.557 86.4353C252.564 87.1413 252.473 87.3506 253.121 92.0807C254.631 103.088 263.348 111.796 273.721 112.656C278.589 113.059 280.708 112.545 287.916 109.216C292.577 107.063 296.626 105.302 296.915 105.302C297.906 105.302 296.139 111.799 294.445 114.385C292.159 117.873 281.732 123.237 274.289 124.754C263.227 127.007 254.734 123.882 246.545 114.546C243.669 111.266 240.991 108.577 240.596 108.569C240.201 108.561 239.706 116.241 239.495 125.634C239.135 141.647 238.926 143.093 236.137 148.799C232.412 156.424 223.234 165.223 215.017 169.051C202.797 174.743 184.789 172.001 180.549 163.802C177.073 157.083 179.663 150.846 185.928 150.846C187.791 150.846 190.446 151.638 191.829 152.606C194.035 154.152 194.255 154.948 193.63 159.113L192.918 163.859L197.594 163.848C203.646 163.835 212.356 159.749 216.316 155.068C221.154 149.347 224.372 141.246 225.156 132.82C225.773 126.174 225.621 125.066 224.003 124.445C222.977 124.051 221.799 123.939 221.385 124.195C220.971 124.451 216.988 124.781 212.535 124.927C205.269 125.168 204.408 124.981 204.129 123.111C203.933 121.792 204.731 120.626 206.298 119.941C207.661 119.345 208.926 117.817 209.107 116.547C209.361 114.764 202.937 93.2627 196.675 74.9386C195.999 72.9595 185.218 99.4525 185.693 101.925C185.915 103.07 187.151 103.675 189.27 103.675C192.051 103.675 192.458 103.314 192.15 101.118C191.502 96.5083 192.885 93.3733 195.566 93.3733C201.616 93.3733 202.353 99.4709 196.956 104.868C193.721 108.102 192.585 108.555 187.71 108.555C182.741 108.555 182.04 108.85 181.094 111.336C179.188 116.348 179.766 119.289 182.806 120.053C184.832 120.561 185.487 121.353 185.247 123.005C184.946 125.063 184.053 125.3 175.156 125.691C169.787 125.927 165.267 126.24 165.11 126.388C164.952 126.535 165.619 128.561 166.592 130.887C170.737 140.806 165.872 156.204 155.143 167.124C143.868 178.597 128.961 183.437 111.598 181.259C96.2002 179.329 87.5303 172.524 75.2119 152.696C68.634 142.109 55.1584 115.551 50.9492 104.879C46.9103 94.6388 38.4519 87.3658 33.0096 89.4543C31.5389 90.0193 31.3556 92.5828 31.6517 108.438C32.0281 128.589 32.6202 130.459 39.0657 131.874C42.4376 132.614 43.6719 134.525 42.2576 136.814C41.5299 137.992 37.235 138.316 22.0219 138.342C3.06604 138.375 2.70489 138.332 2.37843 136.04C2.11814 134.216 2.86106 133.436 5.77201 132.476C14.3758 129.636 14.9853 126.103 15.2749 77.3698C15.5037 38.7207 15.3779 37.9454 8.67646 36.6051C5.7308 36.0163 5.32192 35.5239 5.62017 32.9301L5.96506 29.936L30.9099 29.6248C56.9457 29.2995 63.0594 29.9805 68.428 33.8041C72.6773 36.8285 76.2205 44.9072 76.9341 53.1964L77.5458 60.2992L80.7995 59.8611C82.589 59.6193 85.2733 59.3753 86.7645 59.3189L89.4759 59.2148V83.8491V108.482L92.4834 111.501C95.1514 114.179 96.2783 114.519 102.477 114.519C112.934 114.519 112.786 114.839 113.394 90.8066C113.936 69.3507 113.489 66.6668 109.271 66.0682C107.753 65.8524 106.705 64.8515 106.5 63.4212C106.203 61.338 106.947 61.0073 114.408 59.8969C118.938 59.2235 123.339 58.6726 124.189 58.6726C125.411 58.6726 125.8 61.0854 126.043 70.1781L126.351 81.6846L130.872 74.5861C136.039 66.4759 142.198 61.5332 150.043 59.2039C156.392 57.3193 160.353 57.1685 164.283 58.6628C166.67 59.5694 166.932 60.0671 165.971 61.8629C165.015 63.6478 164.006 63.9059 159.691 63.4656C150.196 62.4962 141.546 69.1913 138.702 79.711C136.642 87.3278 137.981 99.601 141.748 107.651C145.628 115.94 150.308 119.466 158.468 120.25C166.311 121.004 169.734 119.126 172.966 112.294C174.468 109.119 175.698 106.189 175.698 105.783C175.698 105.378 174.17 103.305 172.301 101.178C164.006 91.7305 161.742 80.0808 165.872 68.0776C170.231 55.4118 177.562 48.2157 189.255 45.1241C200.094 42.2581 207.406 43.8825 224.627 52.9817C224.994 53.1747 225.526 48.502 225.811 42.5975C226.247 33.5319 226.841 30.784 229.619 24.9348C238.84 5.52731 254.847 -2.37904 269.818 5.08054ZM254.085 4.42122C250.901 5.17705 245.11 8.2806 245.11 9.23053C245.11 9.44524 247.184 8.89762 249.719 8.01383C252.815 6.93377 256.898 6.56508 262.154 6.8904C270.416 7.40224 271.589 6.36663 264.864 4.4993C260.345 3.24357 259.079 3.23489 254.085 4.42122ZM37.9595 36.7103C32.9337 37.503 32.5367 39.2445 32.5367 60.4683C32.5367 79.5548 32.6213 80.3291 34.8381 81.5154C40.2045 84.3869 51.6672 78.6711 55.2083 71.3579C58.1138 65.3579 58.4099 50.6545 55.7397 45.0276C52.9806 39.2152 45.187 35.5684 37.9595 36.7103ZM48.4808 41.2788C54.101 44.7044 55.6399 48.9314 55.089 59.4295C54.7289 66.2872 54.0825 69.1988 52.4231 71.4392C48.9103 76.1813 43.5319 79.2762 38.8054 79.2762H34.5486L35.3088 60.0281C35.7275 49.4411 36.2795 40.4146 36.5366 39.9667C37.4552 38.3651 45.0742 39.2011 48.4808 41.2788ZM71.0428 43.2199C71.4712 44.2631 72.0634 48.2895 72.3595 52.1662C72.8692 58.8515 71.7608 63.9363 67.7664 73.2187C67.1015 74.7662 67.2252 75.0774 68.2544 74.4419C71.3302 72.541 74.8127 62.5818 74.8236 55.6558C74.8333 49.3825 72.6707 41.3222 70.9777 41.3222C70.5851 41.3222 70.6144 42.1767 71.0428 43.2199ZM187.787 47.6692C184.594 48.8078 180.933 50.8042 179.653 52.1055C177.487 54.3068 177.72 54.2743 183.005 51.6413C189.202 48.5551 196.824 47.7787 207.15 49.1808C213.077 49.9866 213.095 49.98 209.929 48.2266C204.981 45.4852 194.638 45.225 187.787 47.6692ZM188.537 56.6545C182.097 58.4449 176.001 64.4416 174.094 70.8634C171.333 80.1589 172.362 90.3533 176.589 95.5714C178.483 97.9116 178.61 97.6882 185.948 79.1211C190.039 68.7694 193.859 59.6897 194.436 58.9437C195.013 58.1987 196.797 57.5882 198.399 57.5882C204.164 57.5882 204.086 57.4342 216.487 93.7268C225.732 120.784 225.566 120.809 225.285 92.4061C225.085 72.0551 224.782 67.9984 223.419 67.3456C222.524 66.9173 217.155 64.3039 211.489 61.5365C200.379 56.1123 194.773 54.9206 188.537 56.6545ZM190.275 61.1125C188.76 66.0215 178.759 90.6884 177.941 91.5353C177.477 92.0146 176.488 90.2275 175.742 87.562C172.932 77.5281 177.085 65.5997 184.939 61.1526C190.37 58.0773 191.214 58.0707 190.275 61.1125ZM261.34 60.7958C259.232 61.9106 256.937 63.9623 256.24 65.3557C255.036 67.7642 252.72 75.6445 252.708 77.3785C252.701 78.3718 261.057 78.4151 273.037 77.4826C281.687 76.8092 281.985 76.6953 281.985 74.0602C281.985 70.1206 277 62.2077 273.32 60.3057C269.204 58.177 266.047 58.3061 261.34 60.7958ZM273.372 63.7725C276.382 66.3046 280.592 73.4811 279.609 74.4018C279.424 74.5742 273.954 75.0719 267.451 75.509L255.628 76.3038L256.35 72.696C257.368 67.6069 259.899 64.164 263.9 62.4235C268.685 60.3426 269.42 60.4477 273.372 63.7725ZM219.623 68.3671L222.876 69.0611L223.107 86.9103L223.337 104.76L217.407 87.9513C214.145 78.7068 210.726 69.2531 209.811 66.9433L208.146 62.7434L212.258 65.2082C214.519 66.5637 217.833 67.9854 219.623 68.3671ZM162.385 66.2482C163.388 66.2601 163.434 66.9932 162.572 69.2455C160.883 73.6492 160.853 83.4543 162.509 89.1474C163.307 91.892 165.895 96.6938 168.26 99.8179C172.531 105.46 172.55 105.527 171.078 109.943C168.875 116.549 165.347 118.735 158.425 117.783C148.991 116.486 143.679 110.218 140.995 97.2175C139.515 90.0518 140.203 80.6848 142.537 76.2008C145.621 70.2735 154.384 64.6574 158.888 65.7212C160.081 66.0031 161.654 66.2406 162.385 66.2482ZM67.0571 77.2592L59.822 84.735L63.5062 90.208C65.5322 93.2183 68.7338 98.5774 70.6209 102.118C72.5081 105.658 74.4722 108.555 74.9852 108.555C75.4993 108.555 75.919 99.7713 75.919 89.0357C75.919 78.3002 75.5524 69.5762 75.1056 69.65C74.6587 69.7237 71.0363 73.1471 67.0571 77.2592ZM245.546 72.2373C239.093 82.0848 239.438 97.403 246.377 109.162C249.702 114.798 249.758 113.187 246.512 105.25C242.804 96.183 242.564 83.8111 245.929 75.2097C248.377 68.9494 248.266 68.0873 245.546 72.2373ZM131.918 75.6521C128.037 81.5762 126.48 88.9501 127.228 97.8693C127.844 105.216 130.415 111.717 133.052 112.595C133.801 112.845 133.197 109.813 131.559 105.105C128.198 95.4413 128.544 87.8516 132.765 78.632C136.135 71.2722 135.728 69.8375 131.918 75.6521ZM73.1967 94.2506L72.4929 100.009L68.711 93.7084C66.6308 90.2437 64.4845 86.9569 63.9422 86.4039C63.3425 85.7945 64.9704 83.4478 68.0809 80.4397L73.2076 75.4808L73.5536 81.9872C73.7434 85.5657 73.5828 91.0842 73.1967 94.2506ZM198.425 88.6378C198.467 89.7167 193.024 91.519 192.192 90.7025C192.019 90.5311 192.723 88.2756 193.757 85.6904L195.638 80.9906L197.007 84.1993C197.76 85.9647 198.398 87.9622 198.425 88.6378ZM125.167 108.916C125.891 114.989 126.438 116.146 128.584 116.146C130.888 116.146 130.497 113.705 127.344 108.394L124.542 103.675L125.167 108.916ZM78.1196 112.35C78.087 118.508 84.1551 124.801 90.0182 124.694L92.7296 124.645L89.8458 123.363C85.4479 121.409 82.3244 118.218 80.1281 113.435C78.151 109.132 78.1358 109.123 78.1196 112.35ZM108.998 120.125C101.763 126.166 92.8815 128.436 86.2928 125.932C84.7625 125.35 83.5109 125.12 83.5109 125.422C83.5109 125.722 86.3177 130.885 89.7471 136.896C97.1763 149.913 106.113 160.071 113.833 164.271C127.753 171.847 147.014 167.659 156.132 155.073C160.679 148.796 160.463 146.951 155.076 146.09C149.144 145.141 146.415 142.181 146.415 136.695C146.415 134.28 147.149 130.884 148.047 129.148L149.68 125.992L145.574 124.886C143.316 124.279 140.507 123.054 139.332 122.166C136.311 119.884 133.527 120.093 124.736 123.264C115.088 126.744 113.493 126.491 112.794 121.376L112.252 117.409L108.998 120.125ZM114.455 129.158C115.426 129.158 120.386 127.689 125.476 125.892L134.73 122.627L138.26 124.808C140.202 126.008 142.644 126.99 143.688 126.99C145.142 126.99 145.417 127.559 144.873 129.43C143.054 135.67 143.01 138.733 144.692 141.985C146.442 145.37 151.288 148.678 154.495 148.678C156.799 148.678 156.605 149.998 153.761 153.682C147.918 161.252 139.589 165.266 129.605 165.322C119.606 165.378 113.365 162.544 105.38 154.32C100.58 149.376 88.9055 132.174 88.9402 130.095C88.9434 129.879 91.1125 129.641 93.7589 129.569C96.9138 129.483 100.55 128.319 104.322 126.189L110.074 122.939L111.382 126.05C112.101 127.76 113.484 129.158 114.455 129.158ZM148.055 134.539C147.511 136.256 148.951 141.087 150.007 141.087C150.15 141.087 150.082 139.135 149.854 136.749C149.391 131.884 149.037 131.449 148.055 134.539ZM233.881 145.042C228.031 156.969 221.667 162.551 207.88 167.851L201.185 170.423L206.574 169.75C217.224 168.42 228.456 160.219 233.53 150.07C235.913 145.304 238.027 138.918 237.222 138.918C237.036 138.918 235.533 141.674 233.881 145.042ZM86.7645 165.824C86.7645 167.642 94.4411 173.733 99.4235 175.868C109.452 180.166 124.6 181.096 132.943 177.924C137.445 176.213 135.782 175.973 126.927 177.057C112.682 178.802 100.806 175.809 90.8316 167.961C88.5953 166.202 86.7645 165.24 86.7645 165.824Z" fill="black"/>
<path fill-rule="evenodd" clip-rule="evenodd" d="M269.818 5.08054C285.401 12.8437 288.673 32.6655 274.829 35.4339C272.27 35.9447 271.008 35.473 268.664 33.1296C263.717 28.1826 264.964 21.2012 271.388 17.8786L274.827 16.1013L272.478 14.2003C266.306 9.20342 255.804 10.8257 248.763 17.8645C243.159 23.4687 242.14 27.2261 241.675 44.0332L241.314 57.046L244.225 57.3822C247.787 57.7931 253.312 55.0778 254.883 52.1445C255.877 50.2848 255.616 49.8141 253.039 48.8349C249.321 47.422 248.401 46.035 248.38 41.8102C248.36 37.7491 250.066 35.9002 253.835 35.9002C260.513 35.9002 262.683 43.6678 258.719 53.3785C258.066 54.977 258.516 54.9965 263.758 53.603C268.976 52.2161 276.277 52.3777 280.432 53.9717C281.321 54.3122 282.897 52.4622 284.63 49.0431C287.721 42.9434 290.649 40.8125 294.582 41.7993C296.919 42.3849 297.073 42.7319 295.948 44.8736C295.252 46.2009 293.289 48.8891 291.586 50.8486C287.673 55.3522 287.695 57.74 291.701 63.3756C293.466 65.8578 295.522 70.216 296.269 73.0582C297.579 78.0389 297.524 78.3284 294.775 81.0784C292.036 83.8155 291.249 83.9673 275.294 84.8163C266.149 85.3032 257.268 86.0319 255.557 86.4353C252.564 87.1413 252.473 87.3506 253.121 92.0807C254.631 103.088 263.348 111.796 273.721 112.656C278.589 113.059 280.708 112.545 287.916 109.216C292.577 107.063 296.626 105.302 296.915 105.302C297.906 105.302 296.139 111.799 294.445 114.385C292.159 117.873 281.732 123.237 274.289 124.754C263.227 127.007 254.734 123.882 246.545 114.546C243.669 111.266 240.991 108.577 240.596 108.569C240.201 108.561 239.706 116.241 239.495 125.634C239.135 141.647 238.926 143.093 236.137 148.799C232.412 156.424 223.234 165.223 215.017 169.051C202.797 174.743 184.789 172.001 180.549 163.802C177.073 157.083 179.663 150.846 185.928 150.846C187.791 150.846 190.446 151.638 191.829 152.606C194.035 154.152 194.255 154.948 193.63 159.113L192.918 163.859L197.594 163.848C203.646 163.835 212.356 159.749 216.316 155.068C221.154 149.347 224.372 141.246 225.156 132.82C225.773 126.174 225.621 125.066 224.003 124.445C222.977 124.051 221.799 123.939 221.385 124.195C220.971 124.451 216.988 124.781 212.535 124.927C205.269 125.168 204.408 124.981 204.129 123.111C203.933 121.792 204.731 120.626 206.298 119.941C207.661 119.345 208.926 117.817 209.107 116.547C209.361 114.764 202.937 93.2627 196.675 74.9386C195.999 72.9595 185.218 99.4525 185.693 101.925C185.915 103.07 187.151 103.675 189.27 103.675C192.051 103.675 192.458 103.314 192.15 101.118C191.502 96.5083 192.885 93.3733 195.566 93.3733C201.616 93.3733 202.353 99.4709 196.956 104.868C193.721 108.102 192.585 108.555 187.71 108.555C182.741 108.555 182.04 108.85 181.094 111.336C179.188 116.348 179.766 119.289 182.806 120.053C184.832 120.561 185.487 121.353 185.247 123.005C184.946 125.063 184.053 125.3 175.156 125.691C169.787 125.927 165.267 126.24 165.11 126.388C164.952 126.535 165.619 128.561 166.592 130.887C170.737 140.806 165.872 156.204 155.143 167.124C143.868 178.597 128.961 183.437 111.598 181.259C96.2002 179.329 87.5303 172.524 75.2119 152.696C68.634 142.109 55.1584 115.551 50.9492 104.879C46.9103 94.6388 38.4519 87.3658 33.0096 89.4543C31.5389 90.0193 31.3556 92.5828 31.6517 108.438C32.0281 128.589 32.6202 130.459 39.0657 131.874C42.4376 132.614 43.6719 134.525 42.2576 136.814C41.5299 137.992 37.235 138.316 22.0219 138.342C3.06604 138.375 2.70489 138.332 2.37843 136.04C2.11814 134.216 2.86106 133.436 5.77201 132.476C14.3758 129.636 14.9853 126.103 15.2749 77.3698C15.5037 38.7207 15.3779 37.9454 8.67646 36.6051C5.7308 36.0163 5.32192 35.5239 5.62017 32.9301L5.96506 29.936L30.9099 29.6248C56.9457 29.2995 63.0594 29.9805 68.428 33.8041C72.6773 36.8285 76.2205 44.9072 76.9341 53.1964L77.5458 60.2992L80.7995 59.8611C82.589 59.6193 85.2733 59.3753 86.7645 59.3189L89.4759 59.2148V83.8491V108.482L92.4834 111.501C95.1514 114.179 96.2783 114.519 102.477 114.519C112.934 114.519 112.786 114.839 113.394 90.8066C113.936 69.3507 113.489 66.6668 109.271 66.0682C107.753 65.8524 106.705 64.8515 106.5 63.4212C106.203 61.338 106.947 61.0073 114.408 59.8969C118.938 59.2235 123.339 58.6726 124.189 58.6726C125.411 58.6726 125.8 61.0854 126.043 70.1781L126.351 81.6846L130.872 74.5861C136.039 66.4759 142.198 61.5332 150.043 59.2039C156.392 57.3193 160.353 57.1685 164.283 58.6628C166.67 59.5694 166.932 60.0671 165.971 61.8629C165.015 63.6478 164.006 63.9059 159.691 63.4656C150.196 62.4962 141.546 69.1913 138.702 79.711C136.642 87.3278 137.981 99.601 141.748 107.651C145.628 115.94 150.308 119.466 158.468 120.25C166.311 121.004 169.734 119.126 172.966 112.294C174.468 109.119 175.698 106.189 175.698 105.783C175.698 105.378 174.17 103.305 172.301 101.178C164.006 91.7305 161.742 80.0808 165.872 68.0776C170.231 55.4118 177.562 48.2157 189.255 45.1241C200.094 42.2581 207.406 43.8825 224.627 52.9817C224.994 53.1747 225.526 48.502 225.811 42.5975C226.247 33.5319 226.841 30.784 229.619 24.9348C238.84 5.52731 254.847 -2.37904 269.818 5.08054ZM245.11 9.23053C245.11 8.2806 250.901 5.17705 254.085 4.42122C259.079 3.23489 260.345 3.24357 264.864 4.4993C271.589 6.36663 270.416 7.40224 262.154 6.8904C256.898 6.56508 252.815 6.93377 249.719 8.01383C247.184 8.89762 245.11 9.44524 245.11 9.23053ZM32.5367 60.4683C32.5367 39.2445 32.9337 37.503 37.9595 36.7103C45.187 35.5684 52.9806 39.2152 55.7397 45.0276C58.4099 50.6545 58.1138 65.3579 55.2083 71.3579C51.6672 78.6711 40.2045 84.3869 34.8381 81.5154C32.6213 80.3291 32.5367 79.5548 32.5367 60.4683ZM72.3595 52.1662C72.0634 48.2895 71.4712 44.2631 71.0428 43.2199C70.6144 42.1767 70.5851 41.3222 70.9777 41.3222C72.6707 41.3222 74.8333 49.3825 74.8236 55.6558C74.8127 62.5818 71.3302 72.541 68.2544 74.4419C67.2252 75.0774 67.1015 74.7662 67.7664 73.2187C71.7608 63.9363 72.8692 58.8515 72.3595 52.1662ZM179.653 52.1055C180.933 50.8042 184.594 48.8078 187.787 47.6692C194.638 45.225 204.981 45.4852 209.929 48.2266C213.095 49.98 213.077 49.9866 207.15 49.1808C196.824 47.7787 189.202 48.5551 183.005 51.6413C177.72 54.2743 177.487 54.3068 179.653 52.1055ZM174.094 70.8634C176.001 64.4416 182.097 58.4449 188.537 56.6545C194.773 54.9206 200.379 56.1123 211.489 61.5365C217.155 64.3039 222.524 66.9173 223.419 67.3456C224.782 67.9984 225.085 72.0551 225.285 92.4061C225.566 120.809 225.732 120.784 216.487 93.7268C204.086 57.4342 204.164 57.5882 198.399 57.5882C196.797 57.5882 195.013 58.1987 194.436 58.9437C193.859 59.6897 190.039 68.7694 185.948 79.1211C178.61 97.6882 178.483 97.9116 176.589 95.5714C172.362 90.3533 171.333 80.1589 174.094 70.8634ZM256.24 65.3557C256.937 63.9623 259.232 61.9106 261.34 60.7958C266.047 58.3061 269.204 58.177 273.32 60.3057C277 62.2077 281.985 70.1206 281.985 74.0602C281.985 76.6953 281.687 76.8092 273.037 77.4826C261.057 78.4151 252.701 78.3718 252.708 77.3785C252.72 75.6445 255.036 67.7642 256.24 65.3557ZM59.822 84.735L67.0571 77.2592C71.0363 73.1471 74.6587 69.7237 75.1056 69.65C75.5524 69.5762 75.919 78.3002 75.919 89.0357C75.919 99.7713 75.4993 108.555 74.9852 108.555C74.4722 108.555 72.5081 105.658 70.6209 102.118C68.7338 98.5774 65.5322 93.2183 63.5062 90.208L59.822 84.735ZM246.377 109.162C239.438 97.403 239.093 82.0848 245.546 72.2373C248.266 68.0873 248.377 68.9494 245.929 75.2097C242.564 83.8111 242.804 96.183 246.512 105.25C249.758 113.187 249.702 114.798 246.377 109.162ZM127.228 97.8693C126.48 88.9501 128.037 81.5762 131.918 75.6521C135.728 69.8375 136.135 71.2722 132.765 78.632C128.544 87.8516 128.198 95.4413 131.559 105.105C133.197 109.813 133.801 112.845 133.052 112.595C130.415 111.717 127.844 105.216 127.228 97.8693ZM128.584 116.146C126.438 116.146 125.891 114.989 125.167 108.916L124.542 103.675L127.344 108.394C130.497 113.705 130.888 116.146 128.584 116.146ZM90.0182 124.694C84.1551 124.801 78.087 118.508 78.1196 112.35C78.1358 109.123 78.151 109.132 80.1281 113.435C82.3244 118.218 85.4479 121.409 89.8458 123.363L92.7296 124.645L90.0182 124.694ZM86.2928 125.932C92.8815 128.436 101.763 126.166 108.998 120.125L112.252 117.409L112.794 121.376C113.493 126.491 115.088 126.744 124.736 123.264C133.527 120.093 136.311 119.884 139.332 122.166C140.507 123.054 143.316 124.279 145.574 124.886L149.68 125.992L148.047 129.148C147.149 130.884 146.415 134.28 146.415 136.695C146.415 142.181 149.144 145.141 155.076 146.09C160.463 146.951 160.679 148.796 156.132 155.073C147.014 167.659 127.753 171.847 113.833 164.271C106.113 160.071 97.1763 149.913 89.7471 136.896C86.3177 130.885 83.5109 125.722 83.5109 125.422C83.5109 125.12 84.7625 125.35 86.2928 125.932ZM150.007 141.087C148.951 141.087 147.511 136.256 148.055 134.539C149.037 131.449 149.391 131.884 149.854 136.749C150.082 139.135 150.15 141.087 150.007 141.087ZM207.88 167.851C221.667 162.551 228.031 156.969 233.881 145.042C235.533 141.674 237.036 138.918 237.222 138.918C238.027 138.918 235.913 145.304 233.53 150.07C228.456 160.219 217.224 168.42 206.574 169.75L201.185 170.423L207.88 167.851ZM99.4235 175.868C94.4411 173.733 86.7645 167.642 86.7645 165.824C86.7645 165.24 88.5953 166.202 90.8316 167.961C100.806 175.809 112.682 178.802 126.927 177.057C135.782 175.973 137.445 176.213 132.943 177.924C124.6 181.096 109.452 180.166 99.4235 175.868Z" fill="white"/>
</g>
<defs>
<filter id="filter0_d_327_10" x="0" y="0" width="301.815" height="186.266" filterUnits="userSpaceOnUse" color-interpolation-filters="sRGB">
<feFlood flood-opacity="0" result="BackgroundImageFix"/>
<feColorMatrix in="SourceAlpha" type="matrix" values="0 0 0 0 0 0 0 0 0 0 0 0 0 0 0 0 0 0 127 0" result="hardAlpha"/>
<feOffset dx="1.81508" dy="1.81508"/>
<feComposite in2="hardAlpha" operator="out"/>
<feColorMatrix type="matrix" values="0 0 0 0 0 0 0 0 0 0 0 0 0 0 0 0 0 0 1 0"/>
<feBlend mode="normal" in2="BackgroundImageFix" result="effect1_dropShadow_327_10"/>
<feBlend mode="normal" in="SourceGraphic" in2="effect1_dropShadow_327_10" result="shape"/>
</filter>
</defs>
</svg>
