<svg width="268" height="87" viewBox="0 0 268 87" fill="none" xmlns="http://www.w3.org/2000/svg">
<path d="M233.467 64.8822C187.505 65.8398 144.826 68.3021 121.024 71.3571C119.2 71.5851 116.874 71.5851 115.78 71.4027C112.543 70.8099 95.6715 68.758 87.7831 68.0285C68.7233 66.2046 27.7767 64.2439 28.7798 65.2014C28.871 65.2926 31.5157 65.6118 34.6619 65.8854C65.8506 68.758 98.5897 73.9106 137.028 81.9813L150.252 84.7628L163.156 84.2156C170.223 83.8964 176.151 83.7596 176.379 83.8508C176.562 83.9876 186.365 84.3068 198.129 84.626C228.224 85.4467 243.544 84.4892 253.485 81.1606C261.875 78.3791 266.662 73.5458 267.483 66.9341L267.802 64.5631L253.257 64.6542C245.231 64.6998 236.34 64.791 233.467 64.8822Z" fill="#68A714"/>
<path d="M176.555 83.8879C176.591 83.8886 176.62 83.8877 176.641 83.885L176.555 83.8879C173.507 83.8252 118.56 71.7539 117.479 71.5737C114.241 70.9809 95.6715 68.758 87.7831 68.0284C68.7233 66.2045 27.7767 64.2439 28.7798 65.2014C28.871 65.2926 31.5157 65.6118 34.6619 65.8854C65.8506 68.758 98.5897 73.9105 137.028 81.9813L150.252 84.7628L176.555 83.8879Z" fill="#FF7E00"/>
<path d="M1.73855 66.2958C1.41937 67.3901 0.416223 67.2078 16.193 68.4389C41.6364 70.4452 76.1538 76.0537 113.088 84.1245L121.523 85.9484L130.643 85.538C135.659 85.31 140.401 85.1276 141.13 85.082C144.003 85.0364 140.811 84.2157 126.083 81.2518C79.3 71.9499 46.0594 67.5725 7.93982 65.6574C2.19453 65.3839 1.96654 65.3839 1.73855 66.2958Z" fill="#FF7E00"/>
<path d="M1.10082 69.3509C0.918434 69.7612 0.964032 70.2628 1.19202 70.4452C1.42001 70.6732 4.70303 71.0836 8.44203 71.3572C32.6087 73.3634 59.8305 78.2424 83.3132 84.854L88.9217 86.45L99.0444 86.4044C104.653 86.4044 110.125 86.222 111.265 86.0396C112.404 85.8116 113.18 85.6292 113.043 85.5836C112.86 85.5836 107.434 84.3981 100.959 83.0301C67.0805 75.9169 31.9704 70.6732 9.126 69.3509C6.48134 69.2141 3.65429 68.9861 2.83353 68.8493C1.73919 68.6669 1.28321 68.8037 1.10082 69.3509Z" fill="#FF7E00"/>
<path d="M1.82812 72.6338C1.87372 74.0017 3.28725 74.5945 8.02939 75.2784C22.0734 77.3303 38.899 80.6589 52.6694 84.17L61.6065 86.4498H71.9572C78.0673 86.4498 82.0343 86.2674 81.6239 86.0395C79.1616 84.6259 50.5719 78.4247 36.2543 76.1904C23.031 74.1385 1.82812 71.9498 1.82812 72.6338Z" fill="#FF7E00"/>
<path d="M6.39062 76.92C6.39062 78.1967 16.5133 81.5253 25.04 83.03C33.2932 84.4436 50.6203 86.1307 50.6203 85.4467C50.6203 84.8083 32.3356 80.8413 18.4284 78.4703C13.1847 77.6039 8.35132 76.7832 7.66736 76.6464C6.9378 76.5552 6.39062 76.6464 6.39062 76.92Z" fill="#FF7E00"/>
<path d="M167.025 0.79753C165.781 1.25823 165.551 3.51566 166.656 4.43706C167.67 5.26633 169.605 4.62134 169.927 3.28531C170.388 1.44251 168.868 0.10648 167.025 0.79753Z" fill="black"/>
<path d="M129.71 1.85719C128.051 2.59431 127.452 3.97641 128.189 5.35851C128.742 6.37205 129.617 6.51026 131.046 5.77314C131.783 5.35851 131.921 4.98995 131.644 3.65392C131.368 2.08754 131.368 2.08754 132.888 2.22575C134.363 2.36396 134.409 2.4561 134.547 4.52925C134.685 6.69454 134.685 6.74061 133.303 6.74061C131.368 6.74061 128.281 8.03057 127.729 9.09019C126.853 10.6566 127.176 12.6376 128.42 13.4668C129.802 14.3882 132.474 14.1118 133.764 12.914C134.547 12.2229 134.685 12.2229 135.837 13.1444C137.311 14.2961 138.233 14.3422 139.615 13.3747C140.859 12.4994 140.905 11.8083 139.753 11.8083C138.97 11.8083 138.878 11.3937 138.693 7.43166C138.601 4.06855 138.371 2.9168 137.772 2.27182C136.666 1.21221 131.737 0.935785 129.71 1.85719ZM134.639 9.41268C134.639 11.3476 133.994 12.269 132.704 12.269C131.737 12.269 130.861 10.3341 131.276 9.18233C131.691 8.12271 132.336 7.66201 133.626 7.66201C134.501 7.66201 134.639 7.89236 134.639 9.41268Z" fill="black"/>
<path d="M143.163 1.673C142.979 1.99549 143.255 2.31798 143.808 2.45619C144.96 2.73261 144.96 2.68654 143.992 8.21495C143.393 11.7623 143.071 12.6837 142.518 12.5916C142.103 12.5455 141.735 12.6837 141.689 12.9602C141.643 13.1905 142.887 13.6512 144.453 13.9737C148.046 14.6648 148.922 14.6648 148.922 14.1119C148.922 13.8355 148.599 13.6512 148.185 13.6512C147.586 13.6512 147.494 13.3287 147.77 11.6702C148.415 7.5239 149.06 5.77324 150.212 4.89791C151.502 3.88437 151.64 3.8383 152.561 4.39114C153.068 4.71363 153.068 5.54289 152.377 9.45884C151.686 13.3748 151.41 14.1119 150.672 14.1119C148.784 14.1119 150.027 14.9412 152.746 15.4479C154.312 15.7704 155.97 16.0929 156.431 16.2311C156.938 16.4154 157.214 16.2311 157.214 15.7704C157.214 15.3558 156.892 15.0333 156.523 15.0333C155.648 15.0333 155.648 14.6648 156.569 9.96561C156.938 7.84639 157.168 5.6811 157.03 5.12826C156.523 3.0551 152.239 2.36405 150.12 4.02258L148.922 4.94398L149.198 3.60795C149.475 2.27191 149.429 2.22584 147.217 1.94942C146.019 1.76514 144.683 1.53479 144.223 1.39658C143.808 1.25837 143.347 1.39658 143.163 1.673Z" fill="black"/>
<path d="M118.881 2.91668C118.512 3.37738 117.959 4.16057 117.683 4.66734C117.176 5.58874 117.176 5.58874 117.13 4.5752C117.13 3.05489 116.485 2.91668 113.675 3.74594C111.187 4.43699 110.266 5.35839 112.062 5.35839C112.569 5.35839 112.984 5.4966 112.984 5.68088C112.984 6.04944 114.136 11.8543 114.596 13.9735C114.781 14.7106 114.642 15.0331 114.136 15.0331C113.767 15.0331 113.445 15.3095 113.445 15.6781C113.445 16.1849 114.09 16.1388 117.222 15.5399C119.295 15.1252 121.046 14.5263 121.184 14.2038C121.323 13.7892 121.046 13.6971 120.217 13.8814C119.157 14.1578 119.019 14.0196 118.558 11.8082C117.867 8.53723 117.913 5.68088 118.743 4.62127C119.388 3.74594 119.388 3.74594 119.434 4.66734C119.434 6.8787 122.29 7.56975 123.211 5.58874C124.317 3.10096 120.678 0.843526 118.881 2.91668Z" fill="black"/>
<path d="M106.167 5.26634C105.845 5.35848 105.384 5.9574 105.154 6.55631C104.785 7.43164 104.37 7.66199 103.081 7.66199C99.2567 7.66199 95.7093 11.2094 96.6768 13.9736C96.9071 14.6646 97.5521 15.4478 98.151 15.7242C98.8421 16.0007 99.0724 16.4153 98.8881 16.876C98.7038 17.2446 98.4735 18.212 98.3814 18.9952C98.1971 20.2391 98.3814 20.6537 99.5331 21.483C100.731 22.3583 100.915 22.773 100.685 23.8786C100.362 25.5372 101.56 27.0114 103.311 27.0114C105.568 27.0114 108.931 25.5372 110.728 23.7404C112.202 22.2662 112.525 21.6212 112.525 20.1009C112.525 17.8435 111.511 15.6782 110.221 15.2635C109.715 15.1253 108.148 15.4939 106.444 16.1849C101.099 18.4424 99.6713 18.9031 99.3488 18.6267C98.796 18.0278 99.7635 17.2446 102.343 16.0928C107.043 14.0197 108.609 11.3937 106.766 8.67553C106.167 7.89234 106.167 7.70806 106.674 7.93841C107.503 8.2609 108.471 7.06308 108.102 6.14168C107.78 5.31241 106.996 4.94385 106.167 5.26634ZM102.85 10.0576C104.278 12.3151 104.463 13.605 103.587 14.4804C102.528 15.54 101.468 14.8028 100.362 12.0386C99.487 9.91942 99.487 9.82728 100.316 9.22837C101.56 8.30697 101.837 8.39911 102.85 10.0576ZM111.511 20.193C111.603 20.8841 111.327 21.9437 110.912 22.5887C110.037 23.8786 106.766 25.6293 105.154 25.6293C103.772 25.6293 102.389 24.3854 102.389 23.0955C102.389 22.3123 103.127 21.7594 106.213 20.4234C108.286 19.502 110.314 18.8109 110.682 18.857C111.051 18.9031 111.419 19.502 111.511 20.193Z" fill="black"/>
<path d="M161.819 6.18769C161.819 6.41804 162.234 6.92481 162.695 7.2473C163.57 7.89228 163.524 8.12263 160.529 15.2174C158.825 19.2716 157.166 22.6347 156.798 22.7729C156.337 22.9111 156.245 22.6808 156.475 21.8054C156.89 20.1469 156.383 19.1794 155.093 19.1794C153.711 19.1794 152.836 20.6537 153.527 21.9436C155.093 24.8461 159.608 24.2932 162.28 20.884C163.34 19.5941 167.808 9.41259 167.808 8.39905C167.808 8.07656 166.703 7.47765 165.413 7.01695C164.077 6.60232 162.695 6.09555 162.418 5.95734C162.096 5.8652 161.819 5.95734 161.819 6.18769Z" fill="black"/>
<path d="M172.462 12.2231C171.172 13.513 171.264 14.3883 172.646 15.3097C173.752 16.0469 173.89 16.0469 174.719 15.2637C175.226 14.803 175.641 14.158 175.641 13.7894C175.641 12.9602 177.253 13.0062 177.944 13.8816C178.405 14.4805 178.405 14.9412 177.714 16.4154C177.253 17.429 176.839 18.2582 176.793 18.2582C176.746 18.2582 175.871 17.8436 174.765 17.2908C172.093 16.0008 169.375 16.2312 168.131 17.8897C166.335 20.2853 168.408 23.0495 172.001 23.0956C173.015 23.0956 173.798 23.3259 173.798 23.6024C173.798 24.7541 175.733 26.5508 176.977 26.5508C178.635 26.5508 179.05 26.0901 178.082 25.3991C177.391 24.8923 177.53 24.4777 179.465 21.1606C180.662 19.1336 181.63 17.1986 181.63 16.8301C181.63 15.0794 177.99 12.2231 174.858 11.5781C173.706 11.3477 173.199 11.4859 172.462 12.2231ZM175.595 18.6729C176.101 18.9954 176.055 19.3178 175.364 20.5157C174.443 22.082 173.614 22.5427 172.37 22.1742C171.402 21.8517 171.218 20.5157 171.955 19.1336C172.462 18.2122 174.443 17.9357 175.595 18.6729Z" fill="black"/>
<path d="M40.8873 30.7891C37.8928 39.2199 30.2912 58.2469 29.7384 58.6615C29.3237 58.984 28.4945 59.2604 27.8955 59.2604C27.2506 59.2604 26.8359 59.5368 26.8359 59.9515C26.8359 60.5043 27.6652 60.6425 31.6733 60.6425C35.6814 60.6425 36.5107 60.5043 36.5107 59.9515C36.5107 59.4447 36.0039 59.2604 34.6679 59.2604C32.2261 59.2604 31.9958 58.5694 33.2858 55.068L34.3454 52.3038L38.9063 52.442L43.5133 52.5803L44.619 55.5287C45.2179 57.1412 45.7247 58.6154 45.7247 58.8458C45.7247 59.0761 44.9876 59.2604 44.1122 59.2604C43.0065 59.2604 42.4998 59.4908 42.4998 59.9515C42.4998 60.5504 43.6055 60.6425 49.6406 60.6425C55.6758 60.6425 56.7815 60.5504 56.7815 59.9515C56.7815 59.5368 56.3669 59.2604 55.6297 59.2604C54.2016 59.2604 54.3398 59.5368 48.2125 43.5045C43.6515 31.5262 43.0987 30.2363 42.1312 30.2363C41.5784 30.2363 40.9795 30.5127 40.8873 30.7891ZM40.8873 45.3933C41.7626 47.7429 42.4998 49.8621 42.4998 50.0925C42.4998 50.3228 40.8412 50.5071 38.8142 50.5071C36.7871 50.5071 35.1286 50.461 35.1286 50.3689C35.1286 50.2768 36.3264 47.144 38.3995 41.7999C38.6299 41.201 38.9063 40.7863 39.0445 40.8785C39.1367 41.0167 39.9659 43.0438 40.8873 45.3933Z" fill="black"/>
<path d="M106.535 44.0575C103.678 51.659 100.96 58.201 100.545 58.5695C100.131 58.9381 99.3476 59.2606 98.7948 59.2606C98.1959 59.2606 97.7812 59.537 97.7812 59.9516C97.7812 60.5045 98.6105 60.6427 102.388 60.6427C106.166 60.6427 106.995 60.5045 106.995 59.9516C106.995 59.4909 106.535 59.2606 105.429 59.2606C102.987 59.2606 102.711 58.4774 103.909 55.2986L104.968 52.5804L109.575 52.4422L114.182 52.304L115.334 55.4368C115.933 57.1414 116.532 58.7078 116.578 58.892C116.67 59.0763 115.887 59.2606 114.873 59.2606C113.491 59.2606 112.984 59.4449 112.984 59.9516C112.984 60.5506 114.09 60.6427 120.356 60.6427C126.437 60.6427 127.727 60.5506 127.727 59.9977C127.727 59.5831 127.174 59.2606 126.299 59.1685C124.917 59.0302 124.824 58.892 121.001 48.8948C118.835 43.3204 116.347 36.8245 115.472 34.4749C114.09 30.9275 113.629 30.2365 112.8 30.2365C111.925 30.2365 111.234 31.8028 106.535 44.0575ZM111.51 45.2092C112.293 47.2363 113.03 49.2634 113.215 49.678C113.491 50.4151 113.169 50.5073 109.621 50.5073H105.705L107.594 45.6699C108.654 42.9979 109.621 40.9708 109.806 41.2011C109.99 41.3854 110.773 43.1821 111.51 45.2092Z" fill="black"/>
<path d="M251.427 31.7107C251.104 32.586 248.801 38.5751 246.359 45.0249C240.738 59.7674 241.015 59.2606 238.896 59.2606C238.251 59.2606 237.836 59.537 237.836 59.9516C237.836 60.5045 238.665 60.6427 242.443 60.6427C246.221 60.6427 247.05 60.5045 247.05 59.9516C247.05 59.4449 246.543 59.2606 245.438 59.2606C243.272 59.2606 242.996 58.3853 244.148 55.1604L245.069 52.5804L249.676 52.4422L254.283 52.304L255.527 55.575C256.172 57.3717 256.725 58.9381 256.725 59.0763C256.725 59.1685 255.895 59.2606 254.882 59.2606C253.546 59.2606 253.039 59.4449 253.039 59.9516C253.039 60.5506 254.145 60.6427 260.41 60.6427C266.676 60.6427 267.781 60.5506 267.781 59.9516C267.781 59.4909 267.321 59.2606 266.445 59.2606C265.156 59.2606 265.063 59.1224 259.627 44.8407C254.882 32.6321 253.914 30.4668 253.085 30.3286C252.348 30.1904 251.933 30.5589 251.427 31.7107ZM251.611 45.071C252.486 47.4206 253.269 49.632 253.408 49.9084C253.546 50.3691 252.671 50.5073 249.86 50.5073C247.787 50.5073 246.129 50.3691 246.129 50.1848C246.129 49.5859 249.584 40.8326 249.814 40.8326C249.952 40.8326 250.782 42.7675 251.611 45.071Z" fill="black"/>
<path d="M1.03516 31.3882C1.03516 31.8489 1.49586 32.0793 2.41726 32.0793H3.79936V45.6699V59.2606H2.41726C1.49586 59.2606 1.03516 59.4909 1.03516 59.9516C1.03516 60.5506 2.73975 60.6427 13.7044 60.6427H26.3737V55.575C26.3737 51.5208 26.2355 50.5073 25.7287 50.5073C25.3602 50.5073 24.8073 51.2905 24.5309 52.2119C23.7016 54.8379 21.951 57.2796 20.3385 58.1549C19.5093 58.5695 17.2518 59.0302 15.2247 59.1224L11.6313 59.3988V45.716V32.0793H13.7044C15.2247 32.0793 15.7776 31.895 15.7776 31.3882C15.7776 30.7893 14.6719 30.6972 8.40637 30.6972C2.14084 30.6972 1.03516 30.7893 1.03516 31.3882Z" fill="black"/>
<path d="M72.4453 31.3882C72.4453 31.895 72.9521 32.0793 74.2881 32.0793H76.1309L76.0388 45.5317L75.9006 59.0302L74.196 59.1685C73.0442 59.2606 72.4453 59.537 72.4453 59.9977C72.4453 60.5506 73.7353 60.6427 80.0469 60.6427C86.4967 60.6427 87.6484 60.5506 87.6484 59.9516C87.6484 59.4449 87.0956 59.2606 85.5753 59.2606H83.5021V52.8108V46.361H87.7867C93.2229 46.361 96.1714 45.5317 98.2446 43.3664C99.5806 41.9843 99.8109 41.3854 99.9952 39.0358C100.18 36.7784 99.9952 35.9952 99.212 34.7053C97.231 31.4804 93.914 30.7432 81.7975 30.6972C73.7813 30.6972 72.4453 30.7893 72.4453 31.3882ZM90.4587 32.9546C91.5183 33.7839 91.5644 34.1524 91.5644 38.7134C91.5644 44.7485 91.334 45.1171 86.727 45.3474L83.5021 45.5317V38.8055V32.0793H86.4506C88.662 32.0793 89.6755 32.3096 90.4587 32.9546Z" fill="black"/>
<path d="M128.188 31.3883C128.188 31.8951 128.694 32.0793 130.03 32.0793H131.873V43.3665C131.873 55.9436 132.057 56.9111 134.683 58.8921C136.987 60.5967 139.475 61.2878 143.621 61.2417C148.597 61.2417 151.914 59.7674 153.664 56.7268C154.033 56.1279 154.309 51.7973 154.447 44.38C154.678 31.9872 154.678 32.0793 157.35 32.0793C158.133 32.0793 158.594 31.849 158.594 31.3883C158.594 30.8354 157.764 30.6972 153.756 30.6972C149.84 30.6972 148.919 30.8354 148.919 31.3422C148.919 31.8029 149.518 32.0793 150.67 32.1715L152.374 32.3097L152.513 43.5968C152.605 54.1008 152.559 54.9762 151.729 56.3583C150.347 58.5696 148.781 59.3989 145.694 59.445C142.377 59.491 140.672 58.3853 139.843 55.7593C139.521 54.6076 139.29 49.9545 139.29 42.9979L139.244 32.0793H141.317C142.838 32.0793 143.391 31.8951 143.391 31.3883C143.391 30.7894 142.239 30.6972 135.789 30.6972C129.339 30.6972 128.188 30.7894 128.188 31.3883Z" fill="black"/>
<path d="M161.359 31.3882C161.359 31.8489 161.866 32.0793 162.972 32.0793H164.584V45.6699V59.2606H162.972C161.866 59.2606 161.359 59.4909 161.359 59.9516C161.359 60.5506 163.064 60.6427 174.029 60.6427H186.698V58.3853C186.698 57.1874 186.836 54.8839 186.974 53.3176C187.251 50.6916 187.205 50.5073 186.375 50.5073C185.638 50.5073 185.316 51.0141 184.855 52.6265C184.072 55.3446 181.538 58.0628 179.096 58.7538C178.083 59.0302 176.148 59.2606 174.858 59.2606H172.416V45.6699V32.0793H174.489C176.01 32.0793 176.563 31.895 176.563 31.3882C176.563 30.7893 175.411 30.6972 168.961 30.6972C162.511 30.6972 161.359 30.7893 161.359 31.3882Z" fill="black"/>
<path d="M188.539 31.3882C188.539 31.895 189.046 32.0793 190.382 32.0793H192.225V45.6699V59.2606H190.382C189.046 59.2606 188.539 59.4449 188.539 59.9516C188.539 60.5506 189.691 60.6427 196.141 60.6427C202.59 60.6427 203.742 60.5506 203.742 59.9516C203.742 59.4449 203.235 59.2606 201.899 59.2606H200.057V45.6699V32.0793H201.899C203.235 32.0793 203.742 31.895 203.742 31.3882C203.742 30.7893 202.59 30.6972 196.141 30.6972C189.691 30.6972 188.539 30.7893 188.539 31.3882Z" fill="black"/>
<path d="M206.047 31.3881C206.047 31.8488 206.554 32.0791 207.659 32.0791C208.765 32.0791 209.364 32.3555 209.732 33.0005C210.055 33.6455 210.193 38.0222 210.101 46.1766C209.963 59.4447 210.009 59.2605 207.337 59.2605C206.508 59.2605 206.047 59.4908 206.047 59.9515C206.047 60.5044 206.922 60.6426 211.115 60.6426C215.307 60.6426 216.182 60.5044 216.182 59.9515C216.182 59.4908 215.722 59.2605 214.708 59.2605C211.944 59.2605 211.99 59.5369 212.128 46.7755L212.266 35.0737L221.757 48.2036C226.963 55.4366 231.524 61.3336 231.892 61.3336C232.445 61.3336 232.583 58.984 232.768 46.8215L232.998 32.3095L234.749 32.1713C235.854 32.0791 236.453 31.8027 236.453 31.342C236.453 30.8352 235.532 30.697 231.616 30.697C227.608 30.697 226.778 30.8352 226.778 31.3881C226.778 31.8488 227.285 32.0791 228.391 32.0791C229.727 32.0791 230.095 32.3095 230.464 33.2769C231.017 34.6591 231.109 47.2822 230.602 47.2362C230.372 47.2362 227.562 43.5045 224.291 38.9436L218.348 30.697H212.174C207.014 30.697 206.047 30.7892 206.047 31.3881Z" fill="black"/>
</svg>
