<svg width="137" height="44" viewBox="0 0 137 44" fill="none" xmlns="http://www.w3.org/2000/svg">
<path d="M20.0868 18.2981C19.6752 18.2981 19.3629 18.1703 19.15 17.9148C18.9513 17.6594 18.852 17.3116 18.852 16.8716C18.852 16.5168 18.8662 16.2117 18.8946 15.9562C18.923 15.7007 18.9797 15.431 19.0649 15.1472C19.15 14.8491 19.2565 14.4872 19.3842 14.0614C19.5262 13.6214 19.7036 13.0608 19.9165 12.3795C20.0442 11.9821 20.2003 11.464 20.3849 10.8254C20.5836 10.1725 20.7823 9.46281 20.981 8.69638C21.1797 7.91576 21.3429 7.13513 21.4706 6.35451C21.6126 5.55969 21.6835 4.82874 21.6835 4.16166C21.6835 3.70748 21.5842 3.28879 21.3855 2.90557C20.0655 4.21134 18.8165 5.91452 17.6385 8.01511C16.4746 10.1157 15.4385 12.5569 14.5302 15.3388C14.2605 16.0342 13.9483 16.5026 13.5934 16.7439C13.2386 16.971 12.898 17.0845 12.5715 17.0845C12.4722 17.0845 12.3231 17.0278 12.1244 16.9142C11.9257 16.7865 11.7412 16.5594 11.5709 16.233C11.4006 15.9065 11.3154 15.4452 11.3154 14.8491C11.3154 14.7072 11.3509 14.5298 11.4219 14.3169C11.4928 14.0898 11.5993 13.8485 11.7412 13.593C11.869 12.855 11.9612 12.0673 12.018 11.2299C12.0889 10.3783 12.1315 9.53378 12.1457 8.69638C12.1741 7.84479 12.1883 7.04997 12.1883 6.31193C12.1883 5.7442 12.1457 5.24744 12.0606 4.82165C11.3651 5.70162 10.7051 6.76611 10.0806 8.01511C9.45612 9.26411 8.88839 10.5912 8.37744 11.9963C7.88068 13.4014 7.46907 14.7782 7.14263 16.1265C7.05747 16.4529 6.95812 16.7581 6.84458 17.042C6.73103 17.3116 6.56071 17.5316 6.33362 17.7019C6.12072 17.8581 5.80847 17.9361 5.39687 17.9361C4.94269 17.9361 4.60206 17.7516 4.37497 17.3826C4.14787 17.0136 4.03433 16.5239 4.03433 15.9136C4.03433 15.4452 4.13368 14.842 4.33239 14.104C4.53109 13.3517 4.80076 12.5356 5.1414 11.6557C5.48203 10.7615 5.87234 9.85312 6.31233 8.93057C6.76651 7.99382 7.24198 7.09255 7.73875 6.22677C8.23551 5.36099 8.73936 4.58746 9.25032 3.90619C9.77546 3.21072 10.2722 2.66429 10.7406 2.26688C11.2232 1.85528 11.6632 1.64948 12.0606 1.64948C12.0748 1.64948 12.096 1.64948 12.1244 1.64948C12.4367 1.64948 12.7205 1.67786 12.976 1.73463C13.2457 1.77721 13.4799 1.92624 13.6786 2.18172C13.8915 2.423 14.076 2.82751 14.2321 3.39523C14.3882 3.96296 14.5231 4.76487 14.6366 5.80098C14.665 6.05645 14.6863 6.36161 14.7005 6.71643C14.7147 7.05707 14.7218 7.4119 14.7218 7.78092C15.1902 6.73063 15.7011 5.7442 16.2546 4.82165C16.8224 3.89909 17.4043 3.08298 18.0004 2.37333C18.6107 1.66367 19.2139 1.11013 19.81 0.712726C20.4061 0.315317 20.9597 0.116613 21.4706 0.116613C22.0667 0.116613 22.6203 0.265641 23.1312 0.563697C23.6422 0.847561 24.0538 1.33013 24.366 2.0114C24.6783 2.69267 24.8344 3.62233 24.8344 4.80036C24.8344 6.04936 24.7209 7.26287 24.4938 8.4409C24.2667 9.60474 23.9828 10.7047 23.6422 11.7408C23.3015 12.7769 22.9609 13.7279 22.6203 14.5936C22.2796 15.4452 21.9958 16.1833 21.7687 16.8078C21.5842 17.2478 21.3713 17.6097 21.13 17.8936C20.8887 18.1632 20.541 18.2981 20.0868 18.2981ZM31.0482 18.7026C30.0405 18.7026 29.2315 18.3477 28.6212 17.6381C28.0109 16.9142 27.7057 15.9491 27.7057 14.7427C27.7057 14.3595 27.7554 13.9691 27.8547 13.5717C27.9683 13.1743 28.1031 12.8053 28.2592 12.4647C28.1741 12.3369 28.1031 12.1737 28.0463 11.975C28.0038 11.7621 27.9825 11.5137 27.9825 11.2299C27.9825 10.3073 28.1457 9.46281 28.4721 8.69638C28.7986 7.91576 29.2386 7.24158 29.7921 6.67386C30.3456 6.10613 30.9559 5.66614 31.623 5.35389C32.2901 5.04164 32.9643 4.88552 33.6455 4.88552C34.8094 4.88552 35.7603 5.27583 36.4984 6.05645C37.2506 6.83708 37.6267 8.05059 37.6267 9.697C37.6267 10.5202 37.499 11.3576 37.2435 12.2092C36.988 13.0608 36.6403 13.8769 36.2003 14.6575C35.7745 15.4239 35.2778 16.1123 34.71 16.7226C34.1565 17.3329 33.5604 17.8155 32.9217 18.1703C32.2972 18.5251 31.6727 18.7026 31.0482 18.7026ZM30.7076 11.5066C30.7785 11.6628 30.814 11.8473 30.814 12.0602C30.814 12.2731 30.7714 12.4931 30.6863 12.7201C30.6011 12.9472 30.5159 13.2524 30.4308 13.6356C30.3456 14.0046 30.303 14.5369 30.303 15.2323C30.303 15.4168 30.3243 15.573 30.3669 15.7007C30.4237 15.8143 30.5443 15.871 30.7288 15.871C31.2114 15.871 31.6656 15.7149 32.0914 15.4027C32.5314 15.0904 32.9217 14.6788 33.2623 14.1678C33.6172 13.6569 33.9152 13.0892 34.1565 12.4647C34.412 11.826 34.6036 11.1802 34.7313 10.5273C34.8732 9.86022 34.9442 9.24282 34.9442 8.67509C34.9442 8.30607 34.8732 8.05059 34.7313 7.90866C34.5894 7.76673 34.341 7.69576 33.9862 7.69576C33.5036 7.69576 33.0068 7.85189 32.4959 8.16414C31.9991 8.46219 31.5804 8.8738 31.2398 9.39894C30.8992 9.9099 30.7288 10.4918 30.7288 11.1447C30.7288 11.2724 30.7217 11.3931 30.7076 11.5066ZM59.3083 17.5103C59.2232 18.2768 58.769 18.66 57.9458 18.66C57.52 18.66 57.1794 18.5322 56.9239 18.2768C56.6826 18.0213 56.562 17.6523 56.562 17.1697C56.562 16.3465 56.5974 15.4665 56.6684 14.5298C56.7536 13.5788 56.8529 12.6208 56.9665 11.6557C57.0942 10.6905 57.2148 9.76796 57.3284 8.88799C56.8174 9.62603 56.2781 10.3854 55.7104 11.166C55.1426 11.9466 54.5749 12.7059 54.0072 13.444C53.4395 14.182 52.893 14.8491 52.3679 15.4452C51.8569 16.0272 51.3885 16.4955 50.9627 16.8504C50.537 17.191 50.1821 17.3613 49.8983 17.3613C49.217 17.3613 48.628 17.1129 48.1312 16.6162C47.6345 16.1052 47.3861 15.4594 47.3861 14.6788C47.3861 14.4091 47.4145 14.0472 47.4712 13.593C47.528 13.1246 47.599 12.6279 47.6841 12.1027C47.7693 11.5776 47.8403 11.0808 47.897 10.6125C47.9538 10.1441 47.9822 9.77506 47.9822 9.50539C47.9822 9.50539 47.9822 9.4912 47.9822 9.46281C47.9964 9.39185 47.9822 9.35636 47.9396 9.35636C47.8828 9.35636 47.7267 9.54797 47.4712 9.93119C47.2158 10.3002 46.9035 10.7828 46.5345 11.3789C46.1655 11.975 45.7751 12.5995 45.3635 13.2524C44.9661 13.9053 44.59 14.5156 44.2352 15.0833C43.8946 15.651 43.6107 16.091 43.3836 16.4033C43.0713 16.8858 42.7804 17.191 42.5107 17.3187C42.241 17.4465 41.9288 17.5103 41.574 17.5103C41.0772 17.5103 40.6869 17.3471 40.403 17.0207C40.1334 16.68 39.9985 16.2046 39.9985 15.5943C39.9985 15.3388 40.0411 14.9414 40.1263 14.402C40.2256 13.8627 40.3463 13.2666 40.4882 12.6137C40.6301 11.9466 40.7721 11.3008 40.914 10.6763C41.0701 10.0376 41.2049 9.49829 41.3185 9.05831C41.4462 8.47639 41.6236 8.07188 41.8507 7.84479C42.092 7.60351 42.3972 7.48287 42.7662 7.48287C43.632 7.48287 44.0649 7.90866 44.0649 8.76025C44.0649 8.91638 44.0152 9.17185 43.9158 9.52668C43.8165 9.88151 43.6958 10.2931 43.5539 10.7615C43.412 11.2299 43.263 11.7124 43.1068 12.2092C42.9507 12.6918 42.823 13.1459 42.7236 13.5717C43.0643 12.9756 43.4333 12.3369 43.8307 11.6557C44.2281 10.9744 44.6326 10.3073 45.0442 9.65442C45.47 9.00153 45.8887 8.40542 46.3003 7.86608C46.7261 7.32674 47.1448 6.90095 47.5564 6.5887C47.968 6.26225 48.3583 6.09903 48.7273 6.09903C49.0963 6.09903 49.4583 6.23387 49.8131 6.50354C50.1679 6.75901 50.4589 7.09255 50.686 7.50415C50.9273 7.90156 51.0479 8.32736 51.0479 8.78154C51.0479 9.20733 50.9911 9.71829 50.8776 10.3144C50.764 10.9105 50.6363 11.535 50.4944 12.1879C50.3524 12.8408 50.2531 13.4795 50.1963 14.104C50.6789 13.5646 51.1898 12.9543 51.7292 12.2731C52.2685 11.5776 52.8221 10.8608 53.3898 10.1228C53.9575 9.38475 54.511 8.66799 55.0504 7.97253C55.6039 7.27706 56.1149 6.64547 56.5832 6.07774C57.0658 5.51002 57.4916 5.06293 57.8606 4.73649C58.2296 4.39585 58.5135 4.22553 58.7122 4.22553C59.2941 4.22553 59.7483 4.38166 60.0748 4.69391C60.4154 4.99197 60.5857 5.51711 60.5857 6.26935C60.5857 6.73772 60.5502 7.34803 60.4793 8.10027C60.4225 8.85251 60.3373 9.66861 60.2238 10.5486C60.1244 11.4144 60.0109 12.2943 59.8832 13.1885C59.7696 14.0685 59.6632 14.8846 59.5638 15.6368C59.4645 16.3891 59.3793 17.0136 59.3083 17.5103ZM66.6708 18.7239C65.7908 18.7239 65.0811 18.4187 64.5418 17.8084C64.0024 17.1839 63.7328 16.1833 63.7328 14.8065C63.7328 13.9266 63.8321 13.0466 64.0308 12.1666C64.2437 11.2724 64.5347 10.4279 64.9037 9.63313C65.2869 8.82412 65.7269 8.10736 66.2237 7.48287C66.7346 6.85837 67.2953 6.3687 67.9056 6.01387C68.5159 5.64485 69.1475 5.46034 69.8004 5.46034C70.9074 5.46034 71.7732 5.7584 72.3977 6.35451C73.0222 6.95062 73.3344 7.70996 73.3344 8.63251C73.3344 9.34217 73.1357 9.98796 72.7383 10.5699C72.3551 11.1376 71.83 11.6486 71.1629 12.1027C70.4958 12.5569 69.7507 12.9685 68.9275 13.3375C68.1043 13.7066 67.2598 14.0401 66.394 14.3382C66.323 14.8491 66.2875 15.3033 66.2875 15.7007C66.2875 15.942 66.4224 16.0626 66.692 16.0626C67.3307 16.0626 68.012 15.9633 68.7359 15.7646C69.4739 15.5517 70.219 15.282 70.9713 14.9556C71.7235 14.6149 72.4474 14.2672 73.1428 13.9124C73.8383 13.5433 74.4699 13.1956 75.0376 12.8692C75.6195 12.5285 76.095 12.2589 76.464 12.0602C76.8473 11.8473 77.0956 11.7408 77.2092 11.7408C77.5214 11.7408 77.7485 11.8331 77.8905 12.0176C78.0324 12.2021 78.1034 12.4008 78.1034 12.6137C78.1034 12.713 77.9117 12.933 77.5285 13.2737C77.1595 13.6143 76.6486 14.0188 75.9957 14.4872C75.357 14.9414 74.6331 15.4168 73.8241 15.9136C73.0293 16.3962 72.199 16.8575 71.3332 17.2974C70.4816 17.7232 69.6513 18.0639 68.8423 18.3193C68.0475 18.589 67.3236 18.7239 66.6708 18.7239ZM66.7559 12.4434C67.3378 12.1027 67.9127 11.7479 68.4804 11.3789C69.0623 10.9957 69.5449 10.5699 69.9281 10.1015C70.3113 9.61894 70.5029 9.05831 70.5029 8.41961C70.5029 8.2351 70.4532 8.11446 70.3539 8.05769C70.2545 7.98672 70.1126 7.95124 69.9281 7.95124C69.4313 7.95124 68.9771 8.17123 68.5655 8.61122C68.1681 9.05121 67.8133 9.61894 67.5011 10.3144C67.203 10.9957 66.9546 11.7053 66.7559 12.4434ZM78.6727 18C78.332 18 77.9914 17.8865 77.6508 17.6594C77.3243 17.4181 77.0547 17.0774 76.8418 16.6375C76.6289 16.1833 76.5224 15.6368 76.5224 14.9981C76.5224 14.1466 76.636 13.2382 76.8631 12.2731C77.1043 11.3079 77.3953 10.3428 77.7359 9.37765C78.0766 8.41252 78.4101 7.50415 78.7366 6.65256C78.8927 6.24096 79.0843 5.9642 79.3114 5.82227C79.5385 5.66614 79.8365 5.58808 80.2055 5.58808C81.0429 5.58808 81.4616 6.00678 81.4616 6.84417C81.4616 6.9861 81.3978 7.26287 81.27 7.67447C81.1423 8.07188 80.972 8.56155 80.7591 9.14347C80.5604 9.72539 80.3475 10.357 80.1204 11.0383C79.9075 11.7053 79.7088 12.3866 79.5243 13.0821C79.354 13.7633 79.2191 14.4091 79.1198 15.0194C79.4462 14.5227 79.8081 13.9053 80.2055 13.1672C80.6171 12.415 81.05 11.6273 81.5042 10.8041C81.9726 9.98086 82.441 9.21443 82.9093 8.50477C83.3777 7.78092 83.839 7.19191 84.2932 6.73772C84.7474 6.28354 85.1803 6.05645 85.5919 6.05645C85.9467 6.05645 86.2802 6.12742 86.5925 6.26935C86.9189 6.39709 87.2028 6.65256 87.4441 7.03578C87.6853 7.4048 87.8699 7.93705 87.9976 8.63251C88.1395 9.32798 88.2105 10.2434 88.2105 11.3789C88.2105 11.9466 88.2602 12.5001 88.3595 13.0395C88.4731 13.5646 88.6576 14.0046 88.9131 14.3595C89.1685 14.7001 89.5305 14.8704 89.9988 14.8704C90.8078 14.8704 91.5317 14.7214 92.1704 14.4233C92.8091 14.1253 93.3697 13.7775 93.8523 13.3801C94.3348 12.9827 94.7393 12.635 95.0658 12.3369C95.2645 12.1382 95.4348 11.9821 95.5767 11.8686C95.7329 11.755 95.8606 11.6982 95.96 11.6982C96.258 11.6982 96.4709 11.7763 96.5987 11.9324C96.7406 12.0885 96.8115 12.3014 96.8115 12.5711C96.8115 12.713 96.6909 12.9756 96.4496 13.3588C96.2083 13.7421 95.8677 14.182 95.4277 14.6788C95.0019 15.1614 94.5123 15.6297 93.9587 16.0839C93.4052 16.5381 92.8091 16.9142 92.1704 17.2123C91.5317 17.5103 90.8788 17.6594 90.2117 17.6594C89.0905 17.6594 88.1608 17.4607 87.4228 17.0633C86.6989 16.6516 86.1596 15.9704 85.8048 15.0194C85.4499 14.0543 85.2725 12.7414 85.2725 11.0808C85.2725 11.0383 85.2725 10.9673 85.2725 10.8679C85.2725 10.4279 85.2654 10.0376 85.2512 9.697C85.2512 9.35636 85.2299 9.0796 85.1873 8.8667C84.9461 9.30669 84.6551 9.83183 84.3145 10.4421C83.988 11.0524 83.6332 11.7053 83.25 12.4008C82.8668 13.0821 82.4694 13.7562 82.0578 14.4233C81.6462 15.0762 81.2346 15.6723 80.823 16.2117C80.4255 16.751 80.0423 17.1839 79.6733 17.5103C79.3043 17.8368 78.9707 18 78.6727 18ZM110.551 7.26997C110.551 7.44029 110.494 7.58931 110.38 7.71705C110.267 7.84479 110.125 7.94414 109.955 8.01511C109.713 8.11446 109.295 8.2422 108.699 8.39832C108.102 8.55445 107.379 8.73186 106.527 8.93057C105.69 9.12927 104.788 9.33507 103.823 9.54797C102.858 9.74668 101.893 9.93828 100.928 10.1228C100.559 11.4853 100.183 12.8905 99.7994 14.3382C99.4162 15.7717 99.033 17.1839 98.6498 18.5748C98.5079 19.0716 98.3375 19.4477 98.1388 19.7032C97.9401 19.9728 97.5995 20.1077 97.1169 20.1077C96.5918 20.1077 96.2369 19.9374 96.0524 19.5967C95.8821 19.2703 95.8608 18.8232 95.9886 18.2555C96.3576 16.7084 96.6982 15.2678 97.0105 13.9337C97.3369 12.5995 97.5995 11.5208 97.7982 10.6976C96.9466 10.8395 96.2015 10.9531 95.5628 11.0383C94.9241 11.1092 94.4699 11.1376 94.2002 11.1234C93.9022 11.095 93.6538 10.9744 93.4551 10.7615C93.2564 10.5486 93.1641 10.286 93.1783 9.97377C93.2067 9.6899 93.3344 9.44862 93.5615 9.24991C93.7886 9.03702 94.0583 8.90928 94.3705 8.8667C94.8105 8.82412 95.3783 8.76025 96.0737 8.67509C96.7692 8.58993 97.5356 8.49058 98.373 8.37703C98.5575 7.65318 98.7704 6.90804 99.0117 6.14161C99.253 5.36099 99.5014 4.61585 99.7569 3.90619C100.027 3.18234 100.282 2.55074 100.523 2.0114C100.765 1.47206 100.985 1.08175 101.183 0.840464C101.339 0.655953 101.531 0.514021 101.758 0.41467C101.999 0.315317 102.234 0.265641 102.461 0.265641C102.759 0.265641 103 0.37209 103.185 0.584988C103.369 0.797885 103.461 1.04627 103.461 1.33013C103.461 1.44367 103.454 1.56432 103.44 1.69205C103.426 1.8056 103.397 1.91915 103.355 2.03269C103.085 2.74235 102.794 3.60103 102.482 4.60875C102.184 5.61646 101.872 6.72353 101.545 7.92995C102.61 7.77383 103.653 7.6177 104.675 7.46158C105.711 7.29126 106.648 7.13513 107.485 6.9932C108.337 6.83708 109.018 6.70224 109.529 6.5887C109.813 6.48934 110.054 6.51063 110.253 6.65256C110.451 6.7803 110.551 6.9861 110.551 7.26997ZM110.885 18.7026C109.877 18.7026 109.068 18.3477 108.458 17.6381C107.847 16.9142 107.542 15.9491 107.542 14.7427C107.542 14.3595 107.592 13.9691 107.691 13.5717C107.805 13.1743 107.94 12.8053 108.096 12.4647C108.011 12.3369 107.94 12.1737 107.883 11.975C107.84 11.7621 107.819 11.5137 107.819 11.2299C107.819 10.3073 107.982 9.46281 108.309 8.69638C108.635 7.91576 109.075 7.24158 109.629 6.67386C110.182 6.10613 110.792 5.66614 111.46 5.35389C112.127 5.04164 112.801 4.88552 113.482 4.88552C114.646 4.88552 115.597 5.27583 116.335 6.05645C117.087 6.83708 117.463 8.05059 117.463 9.697C117.463 10.5202 117.336 11.3576 117.08 12.2092C116.825 13.0608 116.477 13.8769 116.037 14.6575C115.611 15.4239 115.114 16.1123 114.547 16.7226C113.993 17.3329 113.397 17.8155 112.758 18.1703C112.134 18.5251 111.509 18.7026 110.885 18.7026ZM110.544 11.5066C110.615 11.6628 110.651 11.8473 110.651 12.0602C110.651 12.2731 110.608 12.4931 110.523 12.7201C110.438 12.9472 110.352 13.2524 110.267 13.6356C110.182 14.0046 110.14 14.5369 110.14 15.2323C110.14 15.4168 110.161 15.573 110.203 15.7007C110.26 15.8143 110.381 15.871 110.565 15.871C111.048 15.871 111.502 15.7149 111.928 15.4027C112.368 15.0904 112.758 14.6788 113.099 14.1678C113.454 13.6569 113.752 13.0892 113.993 12.4647C114.249 11.826 114.44 11.1802 114.568 10.5273C114.71 9.86022 114.781 9.24282 114.781 8.67509C114.781 8.30607 114.71 8.05059 114.568 7.90866C114.426 7.76673 114.178 7.69576 113.823 7.69576C113.34 7.69576 112.843 7.85189 112.332 8.16414C111.836 8.46219 111.417 8.8738 111.076 9.39894C110.736 9.9099 110.565 10.4918 110.565 11.1447C110.565 11.2724 110.558 11.3931 110.544 11.5066ZM122.411 19.0858C121.801 19.0858 121.368 19.0006 121.112 18.8303C120.871 18.66 120.751 18.4116 120.751 18.0852C120.751 17.8013 120.85 17.56 121.049 17.3613C121.247 17.1484 121.687 16.9355 122.369 16.7226C123.163 16.4813 123.916 16.2046 124.625 15.8923C125.349 15.5659 125.938 15.211 126.392 14.8278C126.861 14.4446 127.095 14.0401 127.095 13.6143C127.095 13.3304 126.996 13.1246 126.797 12.9969C126.612 12.8692 126.392 12.8053 126.137 12.8053C125.924 12.8053 125.612 12.8408 125.2 12.9118C124.803 12.9685 124.363 13.0466 123.88 13.1459C123.398 13.2311 122.929 13.3092 122.475 13.3801C122.035 13.4369 121.659 13.4653 121.347 13.4653C120.609 13.4653 120.062 13.3021 119.707 12.9756C119.353 12.635 119.175 12.2021 119.175 11.6769C119.175 11.3931 119.324 11.0028 119.622 10.506C119.92 10.0092 120.318 9.46281 120.814 8.8667C121.311 8.27059 121.865 7.67447 122.475 7.07836C123.085 6.48225 123.703 5.93581 124.327 5.43905C124.966 4.9281 125.569 4.52359 126.137 4.22553C126.705 3.91328 127.187 3.75716 127.585 3.75716C128.039 3.75716 128.401 3.89909 128.67 4.18295C128.954 4.46682 129.096 4.85003 129.096 5.3326C129.096 5.55969 129.075 5.80807 129.032 6.07774C128.99 6.33322 128.883 6.56741 128.713 6.7803C128.543 6.97901 128.28 7.12094 127.925 7.2061C127.57 7.29126 127.088 7.27706 126.477 7.16352C125.995 7.51835 125.491 7.90866 124.966 8.33446C124.455 8.74606 123.972 9.17895 123.518 9.63313C123.064 10.0731 122.688 10.506 122.39 10.9318C122.915 10.7615 123.511 10.6267 124.178 10.5273C124.845 10.4138 125.519 10.357 126.201 10.357C127.024 10.357 127.691 10.506 128.202 10.8041C128.727 11.0879 129.11 11.4711 129.352 11.9537C129.607 12.4363 129.735 12.9685 129.735 13.5504C129.735 14.2033 129.522 14.8562 129.096 15.5091C128.67 16.162 128.103 16.7581 127.393 17.2974C126.683 17.8368 125.896 18.2697 125.03 18.5961C124.164 18.9226 123.291 19.0858 122.411 19.0858ZM0.893225 43.8911C0.608801 43.8911 0.385325 43.7895 0.222797 43.5863C0.0704272 43.3933 -0.00575782 43.0937 -0.00575782 42.6874C-0.00575782 42.1287 0.0450322 41.4633 0.146612 40.6913C0.248192 39.9193 0.385325 39.1016 0.558011 38.2382C0.730697 37.3747 0.91862 36.5265 1.12178 35.6936C1.36557 34.7387 1.60428 33.8702 1.83792 33.088C2.08171 32.3059 2.3255 31.6812 2.56929 31.2139C2.82324 30.7365 3.07719 30.4978 3.33114 30.4978C3.56478 30.4978 3.76794 30.5841 3.94062 30.7568C4.12347 30.9193 4.21489 31.1631 4.21489 31.4882C4.21489 31.7218 4.15394 32.057 4.03205 32.4938C3.91015 32.9204 3.75778 33.4537 3.57494 34.0937C3.92031 33.5248 4.27584 32.9661 4.64153 32.4176C5.01737 31.8691 5.3983 31.3713 5.7843 30.9244C6.1703 30.4774 6.54615 30.1219 6.91184 29.8578C7.27753 29.5937 7.6229 29.4616 7.94795 29.4616C8.33396 29.4616 8.67425 29.5734 8.96883 29.7969C9.27357 30.0203 9.51229 30.3251 9.68497 30.7111C9.85766 31.0971 9.944 31.5339 9.944 32.0215C9.944 32.9255 9.78147 33.8042 9.45642 34.6575C9.13136 35.5006 8.67933 36.2573 8.10032 36.9278C7.53148 37.5982 6.86613 38.1315 6.10428 38.5277C5.34243 38.9137 4.51963 39.1067 3.63588 39.1067C3.38193 39.1067 3.1483 39.0813 2.93498 39.0305C2.73182 38.9898 2.5439 38.9391 2.37121 38.8781C2.24932 39.5282 2.1325 40.1936 2.02076 40.8742C1.91918 41.5649 1.81252 42.2912 1.70079 43.053C1.57889 43.6117 1.3097 43.8911 0.893225 43.8911ZM8.10032 31.2596C7.87685 31.2596 7.59242 31.412 7.24705 31.7167C6.91184 32.0215 6.54615 32.4227 6.14999 32.9204C5.75383 33.408 5.35259 33.9413 4.94627 34.5203C4.5501 35.0892 4.16918 35.6479 3.80349 36.1964C3.44796 36.7449 3.14322 37.2224 2.88927 37.6287C3.66128 37.5474 4.34187 37.3442 4.93103 37.0192C5.52019 36.684 6.02301 36.2777 6.43949 35.8002C6.85597 35.3228 7.19118 34.82 7.44513 34.2918C7.70924 33.7534 7.90224 33.2303 8.02414 32.7224C8.14604 32.2145 8.20698 31.7726 8.20698 31.3967C8.20698 31.3053 8.17143 31.2596 8.10032 31.2596ZM12.5227 39.579C12.1977 39.579 11.9031 39.4876 11.639 39.3047C11.3749 39.1321 11.1667 38.9035 11.0143 38.6191C10.8619 38.3245 10.7857 38.0096 10.7857 37.6744C10.7857 37.0446 10.9229 36.43 11.1971 35.8307C11.4815 35.2314 11.8523 34.6625 12.3094 34.1242C12.7665 33.5858 13.2643 33.0931 13.8027 32.6462C14.3512 32.1891 14.8946 31.798 15.433 31.4729C15.9815 31.1479 16.4793 30.8939 16.9262 30.7111C17.3833 30.5282 17.7389 30.4368 17.9928 30.4368C18.2874 30.4368 18.5261 30.5028 18.709 30.6349C18.902 30.7568 18.9985 30.9498 18.9985 31.2139C18.9985 31.2952 18.9782 31.3612 18.9375 31.412C19.0696 31.4424 19.1762 31.5186 19.2575 31.6405C19.3388 31.7624 19.3794 31.9453 19.3794 32.1891C19.3794 32.2906 19.354 32.5548 19.3032 32.9814C19.2524 33.408 19.1965 33.9261 19.1356 34.5356C19.0848 35.145 19.0594 35.7799 19.0594 36.4402C19.0594 36.5418 19.0747 36.6332 19.1051 36.7145C19.1356 36.7856 19.2016 36.8211 19.3032 36.8211C19.7095 36.8211 20.1209 36.7398 20.5374 36.5773C20.964 36.4046 21.3754 36.1964 21.7716 35.9526C22.1779 35.6987 22.5436 35.4498 22.8687 35.206C23.2039 34.952 23.4832 34.7438 23.7067 34.5813C23.9403 34.4086 24.0927 34.3222 24.1638 34.3222C24.5092 34.3222 24.6819 34.4949 24.6819 34.8403C24.6819 34.9317 24.5701 35.1247 24.3467 35.4193C24.1333 35.7037 23.8388 36.0339 23.4629 36.4097C23.0871 36.7754 22.6655 37.1411 22.1982 37.5068C21.7411 37.8623 21.2637 38.1569 20.766 38.3905C20.2784 38.6242 19.806 38.741 19.3489 38.741C18.7902 38.741 18.3636 38.6089 18.069 38.3448C17.7846 38.0807 17.5814 37.7252 17.4595 37.2782C17.3478 36.8211 17.2868 36.3081 17.2767 35.7393C16.7586 36.4808 16.2203 37.1411 15.6616 37.7201C15.113 38.2889 14.5696 38.741 14.0312 39.0762C13.4928 39.4114 12.99 39.579 12.5227 39.579ZM17.9166 31.9453C16.9212 32.4227 16.0273 32.9712 15.2349 33.5909C14.4426 34.2003 13.8128 34.8403 13.3455 35.5107C12.8884 36.1812 12.6599 36.8262 12.6599 37.4458C12.6599 37.6185 12.7411 37.7049 12.9037 37.7049C13.0967 37.7049 13.3506 37.5931 13.6655 37.3696C13.9906 37.1462 14.341 36.8516 14.7169 36.4859C15.0927 36.11 15.4686 35.6936 15.8444 35.2365C16.2203 34.7692 16.5707 34.2918 16.8958 33.8042C17.2208 33.3166 17.4798 32.8493 17.6728 32.4024C17.744 32.2399 17.8252 32.0875 17.9166 31.9453ZM24.153 39.6704C23.899 39.6704 23.6806 39.579 23.4978 39.3962C23.3251 39.2133 23.2388 38.9492 23.2388 38.6038C23.2388 38.4515 23.2591 38.2026 23.2997 37.8572C23.3505 37.5017 23.4114 37.0954 23.4825 36.6383C23.5638 36.1812 23.64 35.7037 23.7111 35.206C23.7924 34.7082 23.8584 34.2359 23.9092 33.7889C23.9701 33.342 24.0108 32.9611 24.0311 32.6462C24.0514 32.2602 24.153 31.9859 24.3358 31.8234C24.5187 31.6507 24.7371 31.5643 24.991 31.5643C25.1942 31.5643 25.377 31.6151 25.5395 31.7167C25.7122 31.8081 25.8189 32.0062 25.8595 32.311C25.9103 32.6055 25.9154 33.0322 25.8748 33.5909C26.3217 32.7782 26.7737 32.0519 27.2308 31.412C27.6981 30.772 28.1857 30.2641 28.6936 29.8883C29.5367 29.2483 30.2986 28.9283 30.9791 28.9283C31.3652 28.9283 31.6191 29.0147 31.741 29.1874C31.8629 29.3601 31.9238 29.5378 31.9238 29.7207C31.9238 29.8426 31.8934 29.9543 31.8324 30.0559C31.7816 30.1575 31.6699 30.2641 31.4972 30.3759C31.3245 30.4876 31.0604 30.6349 30.7049 30.8177C30.2275 31.0615 29.7551 31.3815 29.2878 31.7777C28.8307 32.1738 28.3736 32.6817 27.9165 33.3014C27.4594 33.921 26.9972 34.6829 26.5299 35.5869C26.0627 36.491 25.5802 37.5677 25.0824 38.8172C24.991 39.1625 24.859 39.3911 24.6863 39.5028C24.5237 39.6146 24.346 39.6704 24.153 39.6704ZM31.4202 39.579C31.0951 39.579 30.8006 39.4876 30.5364 39.3047C30.2723 39.1321 30.0641 38.9035 29.9117 38.6191C29.7594 38.3245 29.6832 38.0096 29.6832 37.6744C29.6832 37.0446 29.8203 36.43 30.0946 35.8307C30.379 35.2314 30.7498 34.6625 31.2069 34.1242C31.664 33.5858 32.1617 33.0931 32.7001 32.6462C33.2486 32.1891 33.7921 31.798 34.3305 31.4729C34.879 31.1479 35.3767 30.8939 35.8237 30.7111C36.2808 30.5282 36.6363 30.4368 36.8903 30.4368C37.1849 30.4368 37.4236 30.5028 37.6064 30.6349C37.7994 30.7568 37.8959 30.9498 37.8959 31.2139C37.8959 31.2952 37.8756 31.3612 37.835 31.412C37.967 31.4424 38.0737 31.5186 38.1549 31.6405C38.2362 31.7624 38.2768 31.9453 38.2768 32.1891C38.2768 32.2906 38.2514 32.5548 38.2007 32.9814C38.1499 33.408 38.094 33.9261 38.033 34.5356C37.9823 35.145 37.9569 35.7799 37.9569 36.4402C37.9569 36.5418 37.9721 36.6332 38.0026 36.7145C38.033 36.7856 38.0991 36.8211 38.2007 36.8211C38.607 36.8211 39.0184 36.7398 39.4348 36.5773C39.8615 36.4046 40.2729 36.1964 40.669 35.9526C41.0754 35.6987 41.4411 35.4498 41.7661 35.206C42.1013 34.952 42.3807 34.7438 42.6041 34.5813C42.8378 34.4086 42.9901 34.3222 43.0613 34.3222C43.4066 34.3222 43.5793 34.4949 43.5793 34.8403C43.5793 34.9317 43.4676 35.1247 43.2441 35.4193C43.0308 35.7037 42.7362 36.0339 42.3604 36.4097C41.9845 36.7754 41.563 37.1411 41.0957 37.5068C40.6386 37.8623 40.1611 38.1569 39.6634 38.3905C39.1758 38.6242 38.7035 38.741 38.2464 38.741C37.6877 38.741 37.261 38.6089 36.9665 38.3448C36.682 38.0807 36.4789 37.7252 36.357 37.2782C36.2452 36.8211 36.1843 36.3081 36.1741 35.7393C35.6561 36.4808 35.1177 37.1411 34.559 37.7201C34.0105 38.2889 33.467 38.741 32.9287 39.0762C32.3903 39.4114 31.8875 39.579 31.4202 39.579ZM36.8141 31.9453C35.8186 32.4227 34.9247 32.9712 34.1324 33.5909C33.3401 34.2003 32.7103 34.8403 32.243 35.5107C31.7859 36.1812 31.5573 36.8262 31.5573 37.4458C31.5573 37.6185 31.6386 37.7049 31.8011 37.7049C31.9941 37.7049 32.2481 37.5931 32.563 37.3696C32.888 37.1462 33.2385 36.8516 33.6143 36.4859C33.9902 36.11 34.366 35.6936 34.7419 35.2365C35.1177 34.7692 35.4682 34.2918 35.7932 33.8042C36.1183 33.3166 36.3773 32.8493 36.5703 32.4024C36.6414 32.2399 36.7227 32.0875 36.8141 31.9453ZM52.2771 39.4266C51.7083 39.4266 51.2156 39.2946 50.7991 39.0305C50.3827 38.7765 50.0627 38.4464 49.8392 38.0401C49.6157 37.6236 49.504 37.197 49.504 36.7602C49.504 36.0288 49.6157 35.3533 49.8392 34.7336C50.0627 34.1038 50.3573 33.535 50.723 33.0271C51.0886 32.509 51.4848 32.0519 51.9114 31.6558C52.3482 31.2596 52.7698 30.9295 53.1761 30.6654C53.5926 30.3911 53.9634 30.1879 54.2884 30.0559C54.6135 29.9137 54.8522 29.8426 55.0046 29.8426C55.2788 29.8426 55.4718 29.9035 55.5836 30.0254C55.7055 30.1371 55.7664 30.3251 55.7664 30.5892C55.7664 30.7415 55.6547 30.9244 55.4312 31.1377C55.2179 31.351 54.9335 31.5948 54.5779 31.8691C54.2326 32.1434 53.8669 32.4532 53.4809 32.7985C53.0949 33.1439 52.7241 33.5299 52.3686 33.9566C52.0232 34.3832 51.7388 34.8505 51.5153 35.3584C51.302 35.8663 51.1953 36.4199 51.1953 37.0192C51.1953 37.2427 51.2359 37.4154 51.3172 37.5372C51.4086 37.6591 51.5559 37.7201 51.7591 37.7201C52.3381 37.7201 52.9577 37.6185 53.618 37.4154C54.2884 37.202 54.9538 36.9379 55.614 36.623C56.2845 36.298 56.9143 35.9628 57.5034 35.6174C58.1027 35.272 58.6157 34.9622 59.0424 34.6879C59.215 34.566 59.3623 34.4695 59.4842 34.3984C59.6061 34.3273 59.6925 34.2918 59.7433 34.2918C60.048 34.2918 60.2004 34.4492 60.2004 34.7641C60.2004 34.9266 60.0785 35.145 59.8347 35.4193C59.5503 35.7748 59.1643 36.1405 58.6767 36.5164C58.1992 36.8922 57.666 37.2528 57.0768 37.5982C56.4978 37.9436 55.9035 38.2534 55.2941 38.5277C54.6947 38.8019 54.131 39.0203 53.6028 39.1828C53.0745 39.3454 52.6327 39.4266 52.2771 39.4266ZM61.3201 39.5028C60.5988 39.5028 60.0198 39.2489 59.583 38.741C59.1462 38.2229 58.9278 37.5322 58.9278 36.6687C58.9278 36.3945 58.9634 36.1151 59.0345 35.8307C59.1158 35.5463 59.2123 35.2822 59.324 35.0384C59.2631 34.947 59.2123 34.8301 59.1716 34.6879C59.1412 34.5356 59.1259 34.3578 59.1259 34.1546C59.1259 33.4944 59.2427 32.89 59.4764 32.3414C59.71 31.7827 60.0249 31.3002 60.4211 30.8939C60.8172 30.4876 61.254 30.1727 61.7315 29.9492C62.2089 29.7257 62.6914 29.614 63.179 29.614C64.0119 29.614 64.6925 29.8934 65.2207 30.452C65.7591 31.0107 66.0283 31.8792 66.0283 33.0576C66.0283 33.6467 65.9369 34.2461 65.754 34.8555C65.5712 35.465 65.3223 36.0491 65.0074 36.6078C64.7027 37.1563 64.3471 37.649 63.9408 38.0858C63.5447 38.5226 63.118 38.8679 62.6609 39.1219C62.214 39.3758 61.767 39.5028 61.3201 39.5028ZM61.0763 34.3527C61.1271 34.4645 61.1525 34.5965 61.1525 34.7489C61.1525 34.9012 61.122 35.0587 61.061 35.2212C61.0001 35.3838 60.9391 35.6021 60.8782 35.8764C60.8172 36.1405 60.7868 36.5214 60.7868 37.0192C60.7868 37.1512 60.802 37.263 60.8325 37.3544C60.8731 37.4357 60.9594 37.4763 61.0915 37.4763C61.4369 37.4763 61.7619 37.3646 62.0667 37.1411C62.3816 36.9176 62.6609 36.623 62.9047 36.2573C63.1587 35.8917 63.372 35.4853 63.5447 35.0384C63.7275 34.5813 63.8646 34.1191 63.9561 33.6518C64.0576 33.1744 64.1084 32.7325 64.1084 32.3262C64.1084 32.0621 64.0576 31.8792 63.9561 31.7777C63.8545 31.6761 63.6767 31.6253 63.4228 31.6253C63.0774 31.6253 62.7219 31.737 62.3562 31.9605C62.0006 32.1738 61.701 32.4684 61.4572 32.8443C61.2134 33.2099 61.0915 33.6264 61.0915 34.0937C61.0915 34.1851 61.0864 34.2715 61.0763 34.3527ZM81.5457 38.6495C81.4848 39.1981 81.1597 39.4723 80.5706 39.4723C80.2658 39.4723 80.022 39.3809 79.8392 39.1981C79.6665 39.0152 79.5802 38.7511 79.5802 38.4058C79.5802 37.8166 79.6056 37.1868 79.6563 36.5164C79.7173 35.8358 79.7884 35.1501 79.8697 34.4594C79.9611 33.7686 80.0474 33.1084 80.1287 32.4786C79.763 33.0068 79.377 33.5502 78.9707 34.1089C78.5644 34.6676 78.158 35.2111 77.7517 35.7393C77.3454 36.2675 76.9543 36.7449 76.5785 37.1716C76.2128 37.588 75.8776 37.9233 75.5728 38.1772C75.2681 38.421 75.0141 38.5429 74.811 38.5429C74.3234 38.5429 73.9018 38.3651 73.5463 38.0096C73.1908 37.6439 73.013 37.1817 73.013 36.623C73.013 36.43 73.0333 36.171 73.074 35.8459C73.1146 35.5107 73.1654 35.1552 73.2263 34.7794C73.2873 34.4035 73.3381 34.048 73.3787 33.7128C73.4193 33.3775 73.4397 33.1134 73.4397 32.9204C73.4397 32.9204 73.4397 32.9103 73.4397 32.89C73.4498 32.8392 73.4397 32.8138 73.4092 32.8138C73.3685 32.8138 73.2568 32.9509 73.074 33.2252C72.8911 33.4893 72.6676 33.8347 72.4035 34.2613C72.1394 34.6879 71.8601 35.1349 71.5655 35.6021C71.2811 36.0694 71.0119 36.5062 70.7579 36.9125C70.5142 37.3189 70.311 37.6337 70.1485 37.8572C69.925 38.2026 69.7167 38.421 69.5237 38.5124C69.3307 38.6038 69.1073 38.6495 68.8533 38.6495C68.4978 38.6495 68.2184 38.5327 68.0153 38.2991C67.8223 38.0553 67.7258 37.715 67.7258 37.2782C67.7258 37.0954 67.7563 36.811 67.8172 36.4249C67.8883 36.0389 67.9747 35.6123 68.0762 35.145C68.1778 34.6676 68.2794 34.2054 68.381 33.7585C68.4927 33.3014 68.5892 32.9154 68.6705 32.6005C68.7619 32.184 68.8889 31.8945 69.0514 31.732C69.2241 31.5593 69.4425 31.4729 69.7066 31.4729C70.3262 31.4729 70.636 31.7777 70.636 32.3871C70.636 32.4989 70.6005 32.6817 70.5294 32.9357C70.4583 33.1896 70.3719 33.4842 70.2704 33.8194C70.1688 34.1546 70.0621 34.5 69.9504 34.8555C69.8386 35.2009 69.7472 35.526 69.6761 35.8307C69.9199 35.4041 70.184 34.947 70.4684 34.4594C70.7529 33.9718 71.0424 33.4944 71.3369 33.0271C71.6417 32.5598 71.9414 32.1332 72.2359 31.7472C72.5407 31.3612 72.8403 31.0564 73.1349 30.833C73.4295 30.5993 73.7088 30.4825 73.973 30.4825C74.2371 30.4825 74.4961 30.579 74.75 30.772C75.004 30.9549 75.2122 31.1936 75.3748 31.4882C75.5474 31.7726 75.6338 32.0773 75.6338 32.4024C75.6338 32.7071 75.5932 33.0728 75.5119 33.4994C75.4306 33.9261 75.3392 34.373 75.2376 34.8403C75.136 35.3076 75.0649 35.7647 75.0243 36.2116C75.3697 35.8256 75.7354 35.3888 76.1214 34.9012C76.5074 34.4035 76.9035 33.8905 77.3099 33.3623C77.7162 32.8341 78.1123 32.3211 78.4983 31.8234C78.8945 31.3256 79.2602 30.8736 79.5954 30.4673C79.9408 30.061 80.2455 29.741 80.5096 29.5074C80.7737 29.2636 80.9769 29.1417 81.1191 29.1417C81.5356 29.1417 81.8606 29.2534 82.0943 29.4769C82.3381 29.6902 82.46 30.066 82.46 30.6044C82.46 30.9396 82.4346 31.3764 82.3838 31.9148C82.3431 32.4532 82.2822 33.0373 82.2009 33.6671C82.1298 34.2867 82.0486 34.9165 81.9571 35.5564C81.8759 36.1862 81.7997 36.7703 81.7286 37.3087C81.6575 37.8471 81.5965 38.294 81.5457 38.6495ZM84.7562 43.8911C84.4718 43.8911 84.2483 43.7895 84.0858 43.5863C83.9334 43.3933 83.8572 43.0937 83.8572 42.6874C83.8572 42.1287 83.908 41.4633 84.0096 40.6913C84.1112 39.9193 84.2483 39.1016 84.421 38.2382C84.5937 37.3747 84.7816 36.5265 84.9848 35.6936C85.2286 34.7387 85.4673 33.8702 85.7009 33.088C85.9447 32.3059 86.1885 31.6812 86.4323 31.2139C86.6862 30.7365 86.9402 30.4978 87.1941 30.4978C87.4278 30.4978 87.6309 30.5841 87.8036 30.7568C87.9865 30.9193 88.0779 31.1631 88.0779 31.4882C88.0779 31.7218 88.0169 32.057 87.895 32.4938C87.7731 32.9204 87.6208 33.4537 87.4379 34.0937C87.7833 33.5248 88.1388 32.9661 88.5045 32.4176C88.8804 31.8691 89.2613 31.3713 89.6473 30.9244C90.0333 30.4774 90.4091 30.1219 90.7748 29.8578C91.1405 29.5937 91.4859 29.4616 91.8109 29.4616C92.1969 29.4616 92.5372 29.5734 92.8318 29.7969C93.1366 30.0203 93.3753 30.3251 93.548 30.7111C93.7206 31.0971 93.807 31.5339 93.807 32.0215C93.807 32.9255 93.6445 33.8042 93.3194 34.6575C92.9944 35.5006 92.5423 36.2573 91.9633 36.9278C91.3945 37.5982 90.7291 38.1315 89.9673 38.5277C89.2054 38.9137 88.3826 39.1067 87.4989 39.1067C87.2449 39.1067 87.0113 39.0813 86.798 39.0305C86.5948 38.9898 86.4069 38.9391 86.2342 38.8781C86.1123 39.5282 85.9955 40.1936 85.8838 40.8742C85.7822 41.5649 85.6755 42.2912 85.5638 43.053C85.4419 43.6117 85.1727 43.8911 84.7562 43.8911ZM91.9633 31.2596C91.7398 31.2596 91.4554 31.412 91.11 31.7167C90.7748 32.0215 90.4091 32.4227 90.013 32.9204C89.6168 33.408 89.2156 33.9413 88.8093 34.5203C88.4131 35.0892 88.0322 35.6479 87.6665 36.1964C87.311 36.7449 87.0062 37.2224 86.7523 37.6287C87.5243 37.5474 88.2049 37.3442 88.794 37.0192C89.3832 36.684 89.886 36.2777 90.3025 35.8002C90.719 35.3228 91.0542 34.82 91.3081 34.2918C91.5722 33.7534 91.7652 33.2303 91.8871 32.7224C92.009 32.2145 92.07 31.7726 92.07 31.3967C92.07 31.3053 92.0344 31.2596 91.9633 31.2596ZM96.3857 39.579C96.0607 39.579 95.7661 39.4876 95.502 39.3047C95.2379 39.1321 95.0296 38.9035 94.8773 38.6191C94.7249 38.3245 94.6487 38.0096 94.6487 37.6744C94.6487 37.0446 94.7859 36.43 95.0601 35.8307C95.3445 35.2314 95.7153 34.6625 96.1724 34.1242C96.6295 33.5858 97.1273 33.0931 97.6656 32.6462C98.2142 32.1891 98.7576 31.798 99.296 31.4729C99.8445 31.1479 100.342 30.8939 100.789 30.7111C101.246 30.5282 101.602 30.4368 101.856 30.4368C102.15 30.4368 102.389 30.5028 102.572 30.6349C102.765 30.7568 102.861 30.9498 102.861 31.2139C102.861 31.2952 102.841 31.3612 102.801 31.412C102.933 31.4424 103.039 31.5186 103.12 31.6405C103.202 31.7624 103.242 31.9453 103.242 32.1891C103.242 32.2906 103.217 32.5548 103.166 32.9814C103.115 33.408 103.06 33.9261 102.999 34.5356C102.948 35.145 102.922 35.7799 102.922 36.4402C102.922 36.5418 102.938 36.6332 102.968 36.7145C102.999 36.7856 103.065 36.8211 103.166 36.8211C103.573 36.8211 103.984 36.7398 104.4 36.5773C104.827 36.4046 105.238 36.1964 105.635 35.9526C106.041 35.6987 106.407 35.4498 106.732 35.206C107.067 34.952 107.346 34.7438 107.57 34.5813C107.803 34.4086 107.956 34.3222 108.027 34.3222C108.372 34.3222 108.545 34.4949 108.545 34.8403C108.545 34.9317 108.433 35.1247 108.21 35.4193C107.996 35.7037 107.702 36.0339 107.326 36.4097C106.95 36.7754 106.528 37.1411 106.061 37.5068C105.604 37.8623 105.127 38.1569 104.629 38.3905C104.141 38.6242 103.669 38.741 103.212 38.741C102.653 38.741 102.227 38.6089 101.932 38.3448C101.648 38.0807 101.444 37.7252 101.323 37.2782C101.211 36.8211 101.15 36.3081 101.14 35.7393C100.622 36.4808 100.083 37.1411 99.5246 37.7201C98.976 38.2889 98.4326 38.741 97.8942 39.0762C97.3558 39.4114 96.853 39.579 96.3857 39.579ZM101.78 31.9453C100.784 32.4227 99.8902 32.9712 99.0979 33.5909C98.3056 34.2003 97.6758 34.8403 97.2085 35.5107C96.7514 36.1812 96.5229 36.8262 96.5229 37.4458C96.5229 37.6185 96.6041 37.7049 96.7667 37.7049C96.9597 37.7049 97.2136 37.5931 97.5285 37.3696C97.8536 37.1462 98.204 36.8516 98.5799 36.4859C98.9557 36.11 99.3316 35.6936 99.7074 35.2365C100.083 34.7692 100.434 34.2918 100.759 33.8042C101.084 33.3166 101.343 32.8493 101.536 32.4024C101.607 32.2399 101.688 32.0875 101.78 31.9453ZM108.016 39.6704C107.762 39.6704 107.544 39.579 107.361 39.3962C107.188 39.2133 107.102 38.9492 107.102 38.6038C107.102 38.4515 107.122 38.2026 107.163 37.8572C107.213 37.5017 107.274 37.0954 107.346 36.6383C107.427 36.1812 107.503 35.7037 107.574 35.206C107.655 34.7082 107.721 34.2359 107.772 33.7889C107.833 33.342 107.874 32.9611 107.894 32.6462C107.914 32.2602 108.016 31.9859 108.199 31.8234C108.382 31.6507 108.6 31.5643 108.854 31.5643C109.057 31.5643 109.24 31.6151 109.403 31.7167C109.575 31.8081 109.682 32.0062 109.723 32.311C109.773 32.6055 109.778 33.0322 109.738 33.5909C110.185 32.7782 110.637 32.0519 111.094 31.412C111.561 30.772 112.049 30.2641 112.557 29.8883C113.4 29.2483 114.162 28.9283 114.842 28.9283C115.228 28.9283 115.482 29.0147 115.604 29.1874C115.726 29.3601 115.787 29.5378 115.787 29.7207C115.787 29.8426 115.756 29.9543 115.695 30.0559C115.645 30.1575 115.533 30.2641 115.36 30.3759C115.188 30.4876 114.923 30.6349 114.568 30.8177C114.09 31.0615 113.618 31.3815 113.151 31.7777C112.694 32.1738 112.237 32.6817 111.78 33.3014C111.322 33.921 110.86 34.6829 110.393 35.5869C109.926 36.491 109.443 37.5677 108.945 38.8172C108.854 39.1625 108.722 39.3911 108.549 39.5028C108.387 39.6146 108.209 39.6704 108.016 39.6704ZM125.764 31.3206C125.764 31.4424 125.723 31.5491 125.642 31.6405C125.561 31.732 125.459 31.8031 125.337 31.8538C125.165 31.925 124.865 32.0164 124.438 32.1281C124.012 32.2399 123.494 32.3668 122.884 32.509C122.285 32.6513 121.64 32.7985 120.949 32.9509C120.258 33.0931 119.567 33.2303 118.877 33.3623C118.613 34.3375 118.343 35.3431 118.069 36.3792C117.795 37.4052 117.521 38.4159 117.246 39.4114C117.145 39.7669 117.023 40.0361 116.881 40.219C116.738 40.412 116.495 40.5085 116.149 40.5085C115.773 40.5085 115.52 40.3866 115.387 40.1428C115.266 39.9091 115.25 39.5892 115.342 39.1828C115.606 38.0756 115.85 37.0446 116.073 36.0897C116.307 35.1349 116.495 34.3629 116.637 33.7737C116.027 33.8753 115.494 33.9566 115.037 34.0175C114.58 34.0683 114.255 34.0886 114.062 34.0785C113.849 34.0581 113.671 33.9718 113.529 33.8194C113.386 33.6671 113.32 33.4791 113.33 33.2557C113.351 33.0525 113.442 32.8798 113.605 32.7376C113.767 32.5852 113.96 32.4938 114.184 32.4633C114.499 32.4329 114.905 32.3871 115.403 32.3262C115.9 32.2652 116.449 32.1941 117.048 32.1129C117.18 31.5948 117.333 31.0615 117.505 30.513C117.678 29.9543 117.856 29.421 118.039 28.9131C118.232 28.3951 118.415 27.943 118.587 27.557C118.76 27.171 118.917 26.8917 119.06 26.719C119.171 26.5869 119.308 26.4853 119.471 26.4142C119.644 26.3431 119.811 26.3076 119.974 26.3076C120.187 26.3076 120.36 26.3838 120.492 26.5361C120.624 26.6885 120.69 26.8663 120.69 27.0694C120.69 27.1507 120.685 27.237 120.675 27.3285C120.665 27.4097 120.644 27.491 120.614 27.5723C120.421 28.0802 120.213 28.6947 119.989 29.4159C119.776 30.1371 119.552 30.9295 119.319 31.7929C120.08 31.6812 120.827 31.5694 121.558 31.4577C122.3 31.3358 122.97 31.2241 123.57 31.1225C124.179 31.0107 124.667 30.9142 125.032 30.833C125.236 30.7619 125.408 30.7771 125.551 30.8787C125.693 30.9701 125.764 31.1174 125.764 31.3206ZM123.928 39.2286C123.644 39.2286 123.39 39.1321 123.166 38.9391C122.953 38.7461 122.846 38.4312 122.846 37.9944C122.846 37.7607 122.877 37.4306 122.938 37.004C123.009 36.5773 123.1 36.1151 123.212 35.6174C123.324 35.1095 123.446 34.6067 123.578 34.1089C123.72 33.6112 123.857 33.1693 123.989 32.7833C124.121 32.3871 124.238 32.0926 124.34 31.8996C124.472 31.6659 124.594 31.5237 124.705 31.4729C124.827 31.412 124.944 31.3815 125.056 31.3815C125.259 31.3815 125.447 31.4424 125.62 31.5643C125.802 31.6862 125.894 31.9554 125.894 32.3719C125.894 32.5344 125.863 32.7985 125.802 33.1642C125.741 33.5198 125.665 33.9362 125.574 34.4137C125.482 34.8911 125.381 35.3838 125.269 35.8917C125.168 36.3996 125.066 36.8821 124.964 37.3392C124.873 37.7861 124.797 38.162 124.736 38.4667C124.685 38.7207 124.578 38.9086 124.416 39.0305C124.263 39.1625 124.101 39.2286 123.928 39.2286ZM125.681 29.873C125.345 29.873 125.035 29.7765 124.751 29.5835C124.467 29.3804 124.324 29.0706 124.324 28.6541C124.324 28.3087 124.411 28.0294 124.583 27.816C124.756 27.6027 124.959 27.4504 125.193 27.3589C125.437 27.2574 125.65 27.2066 125.833 27.2066C126.016 27.2066 126.219 27.2472 126.442 27.3285C126.666 27.3996 126.859 27.5367 127.021 27.7399C127.194 27.9329 127.28 28.2122 127.28 28.5779C127.28 28.8217 127.194 29.0452 127.021 29.2483C126.849 29.4413 126.635 29.5937 126.381 29.7054C126.138 29.8172 125.904 29.873 125.681 29.873ZM128.61 39.6704C128.356 39.6704 128.137 39.579 127.955 39.3962C127.782 39.2133 127.696 38.9492 127.696 38.6038C127.696 38.4515 127.716 38.2026 127.756 37.8572C127.807 37.5017 127.868 37.0954 127.939 36.6383C128.021 36.1812 128.097 35.7037 128.168 35.206C128.249 34.7082 128.315 34.2359 128.366 33.7889C128.427 33.342 128.468 32.9611 128.488 32.6462C128.508 32.2602 128.61 31.9859 128.793 31.8234C128.975 31.6507 129.194 31.5643 129.448 31.5643C129.651 31.5643 129.834 31.6151 129.996 31.7167C130.169 31.8081 130.276 32.0062 130.316 32.311C130.367 32.6055 130.372 33.0322 130.332 33.5909C130.778 32.7782 131.23 32.0519 131.688 31.412C132.155 30.772 132.642 30.2641 133.15 29.8883C133.993 29.2483 134.755 28.9283 135.436 28.9283C135.822 28.9283 136.076 29.0147 136.198 29.1874C136.32 29.3601 136.381 29.5378 136.381 29.7207C136.381 29.8426 136.35 29.9543 136.289 30.0559C136.238 30.1575 136.127 30.2641 135.954 30.3759C135.781 30.4876 135.517 30.6349 135.162 30.8177C134.684 31.0615 134.212 31.3815 133.745 31.7777C133.287 32.1738 132.83 32.6817 132.373 33.3014C131.916 33.921 131.454 34.6829 130.987 35.5869C130.519 36.491 130.037 37.5677 129.539 38.8172C129.448 39.1625 129.316 39.3911 129.143 39.5028C128.98 39.6146 128.803 39.6704 128.61 39.6704Z" fill="black"/>
</svg>
